<?xml version="1.0" encoding="UTF-8" standalone="no"?>
<svg
   width="60.028801mm"
   height="60.028801mm"
   viewBox="0 0 709 709"
   version="1.1"
   id="svg1"
   xmlns="http://www.w3.org/2000/svg"
   xmlnsSvg="http://www.w3.org/2000/svg">
  <defs
     id="defs1" />
  <path
     id="Selección"
     fill="none"
     stroke="black"
     strokeWidth="1"
     d="m 332,5.21 c 0,0 36,0 36,0 0,0 12,0.7 12,0.7 26.25,1.81 51.81,6.32 77,14.07 52.43,16.12 97.83,42.68 138,80.11 48.14,44.85 82.46,105.27 98.37,168.91 4.4,17.58 9.42,44.07 9.63,62 0,0 1,17 1,17 0,0 -1,30 -1,30 0,0 -1.85,19 -1.85,19 -4.59,38.47 -15.52,76.1 -32.41,111 C 630.27,587.48 560.48,650.46 478,681.58 437.23,696.95 393.45,704.07 350,704 c 0,0 -19,-1 -19,-1 0,0 -10,-0.91 -10,-0.91 -29.81,-2.18 -61.01,-9.61 -89,-20.04 C 188.26,665.75 148.15,640.73 114,608.91 12.61,514.45 -22.38,361.39 26.42,232 62.37,136.7 137.16,61.19 233,26.05 255.94,17.64 279.84,11.83 304,8.27 Z m -38,185.07 c -7.3,1.05 -14.64,0.71 -22,0.72 0,0 -12,0.91 -12,0.91 -30.9,2.11 -61.71,5.24 -92,12.21 -11.13,2.56 -30.68,6.54 -40,12.35 -16.02,9.98 -18.63,33.39 -6.67,47.52 6.66,7.87 15.55,11.23 25.67,11 7.57,-0.18 19.93,-4.75 28,-6.57 19.53,-4.39 39.12,-7.74 59,-10.14 52.72,-6.34 118.49,-4.01 171,4.14 37.67,5.85 78.85,16.25 114,31 0,0 35,16.89 35,16.89 7.76,4.2 15.76,9.21 25,8.51 18.83,-1.43 30.21,-15.46 30,-33.82 -0.17,-14.61 -9.17,-22.65 -21,-29.42 -14.34,-8.21 -32.64,-16.83 -48,-22.98 -55.78,-22.31 -118.13,-35.5 -178,-39.69 0,0 -40,-1.91 -40,-1.91 z m -29,120.86 c 0,0 -12,1.03 -12,1.03 0,0 -19,1.99 -19,1.99 -15.8,1.7 -39.54,6.1 -55,9.97 0,0 -26,7.39 -26,7.39 -19.24,8.81 -21.28,35.93 -3,46.95 11.77,7.19 20.06,3.27 32,0 0,0 23,-5.47 23,-5.47 15.91,-3.29 45.14,-7.81 61,-8 0,0 19,-1 19,-1 0,0 21,0 21,0 0,0 17,1 17,1 12.25,0.02 38.39,3.47 51,5.59 34.03,5.71 67.14,14.46 99,27.83 0,0 24,10.89 24,10.89 0,0 26,14.35 26,14.35 18.19,7.83 38.46,-5.65 37.24,-25.66 -0.92,-15.15 -11.21,-21.23 -23.24,-27.77 0,0 -42,-20.65 -42,-20.65 -41.08,-17.53 -87.67,-29.43 -132,-34.73 0,0 -32,-2.94 -32,-2.94 0,0 -10,-0.77 -10,-0.77 z m 26,113.14 c -6.37,0.92 -9.72,0.71 -16,0.72 0,0 -19,1.17 -19,1.17 -28.12,2.68 -57.5,6.94 -85,13.48 -21.74,5.17 -24.34,27.29 -10.98,37.96 8.8,7.03 18.17,3.97 27.98,1.81 0,0 16,-3.17 16,-3.17 22.96,-3.99 45.73,-7.28 69,-8.29 0,0 13,-0.96 13,-0.96 0,0 28,0 28,0 0,0 12,1.04 12,1.04 0,0 9,0 9,0 35.17,3.48 70.21,10.48 103,23.97 13.03,5.36 24.71,10.95 37,17.85 7.94,4.46 15.24,10.26 25,8.08 15.62,-3.49 22.01,-21.21 12.21,-33.85 -3.06,-3.96 -8.87,-7.15 -13.21,-9.67 0,0 -27,-14.11 -27,-14.11 C 427.06,439.67 369.57,425.08 320,425 Z"
     style="fill:#1ed760;fill-opacity:1;stroke:#1ed760;stroke-opacity:1" />
  <path
     style="fill:#1ed760;fill-opacity:1;stroke:#1ed760;stroke-width:0.823461;stroke-opacity:1"
     d="m 349.05,704.10483 c -0.28,-0.28344 -4.91205,-0.71512 -10.29326,-0.95956 -5.38121,-0.24438 -11.26625,-0.58169 -13.07788,-0.74937 -5.97164,-0.55278 -13.9577,-1.35453 -16.46922,-1.65341 -1.35871,-0.16156 -4.13789,-0.48706 -6.17596,-0.723 -2.03807,-0.23593 -4.81725,-0.64021 -6.17596,-0.89837 -1.35871,-0.25812 -3.39677,-0.6299 -4.52903,-0.82612 -1.13226,-0.19625 -3.07669,-0.56344 -4.32097,-0.81609 -4.00784,-0.81375 -6.33775,-1.27497 -8.23461,-1.63003 -1.98162,-0.37097 -4.07886,-0.87103 -10.7072,-2.55309 -1.01903,-0.25875 -2.5939,-0.58187 -3.49971,-0.71837 -0.90581,-0.13656 -1.73956,-0.34178 -1.85279,-0.45622 -0.11322,-0.11438 -0.57642,-0.30062 -1.02932,-0.41387 -0.45291,-0.11313 -1.10138,-0.30875 -1.44106,-0.43422 -0.33968,-0.12563 -0.98815,-0.31447 -1.44106,-0.41969 -0.4529,-0.10531 -1.00874,-0.2625 -1.23519,-0.34931 -0.22646,-0.0869 -1.0602,-0.31491 -1.85279,-0.50672 l -2.88211,-0.69747 c -0.79258,-0.19187 -1.5337,-0.42337 -1.64692,-0.51465 -0.11322,-0.0912 -0.57642,-0.25844 -1.02933,-0.37181 -0.4529,-0.11313 -1.00874,-0.29844 -1.23519,-0.41172 -0.22647,-0.11312 -0.78229,-0.29844 -1.23519,-0.41172 -0.45291,-0.11312 -1.00874,-0.29843 -1.23519,-0.41175 -0.22644,-0.11312 -0.78229,-0.29843 -1.23519,-0.41171 -0.45291,-0.11313 -1.00874,-0.29844 -1.2352,-0.41175 -0.22643,-0.11313 -0.78228,-0.29844 -1.23519,-0.41172 -0.4529,-0.11313 -1.00874,-0.29844 -1.23519,-0.41172 -0.22647,-0.11312 -0.78229,-0.29844 -1.23519,-0.41175 -0.45291,-0.11312 -1.00874,-0.29844 -1.23519,-0.41172 -0.22644,-0.11312 -0.78229,-0.29843 -1.23519,-0.41175 -0.45291,-0.11312 -1.00874,-0.29843 -1.2352,-0.41171 -0.22643,-0.11313 -0.78228,-0.29844 -1.23519,-0.41172 -0.4529,-0.11313 -1.00874,-0.29844 -1.23519,-0.41175 -0.22643,-0.11312 -0.68965,-0.26531 -1.02933,-0.33797 -0.33967,-0.0725 -1.45135,-0.59522 -2.47038,-1.16125 -1.01903,-0.56599 -1.85279,-0.82224 -1.85279,-0.56943 0,0.25281 -0.92639,-0.14719 -2.05865,-0.88919 -1.13226,-0.74187 -2.05865,-1.11243 -2.05865,-0.82346 0,0.28906 -0.9264,-0.0816 -2.05865,-0.82347 -1.13226,-0.74187 -2.05866,-1.11244 -2.05866,-0.82344 0,0.28907 -0.92639,-0.0816 -2.05865,-0.82346 -1.13226,-0.74188 -2.05865,-1.10538 -2.05865,-0.80775 0,0.29781 -1.65215,-0.42706 -3.67145,-1.61047 -2.01929,-1.18337 -3.88398,-2.10202 -4.14375,-2.04146 -0.25978,0.0606 -4.99974,-2.21462 -10.53326,-5.05599 -5.53353,-2.84137 -10.33887,-5.08805 -10.67855,-4.99264 -0.33967,0.0953 -0.61759,-0.21907 -0.61759,-0.6986 0,-0.47965 -0.37056,-0.64306 -0.82346,-0.36312 -0.45291,0.28 -0.82346,0.0947 -0.82346,-0.41175 0,-0.50634 -0.37056,-0.69162 -0.82347,-0.41172 -0.4529,0.28 -0.82346,0.12344 -0.82346,-0.34743 0,-0.47104 -0.92639,-1.08891 -2.05865,-1.3731 -1.13226,-0.28406 -2.05865,-0.90881 -2.05865,-1.38809 0,-0.47931 -0.22472,-0.64671 -0.49939,-0.37206 -0.27465,0.27469 -1.25718,-0.20656 -2.18336,-1.06946 -0.92619,-0.86288 -1.99841,-1.37453 -2.38272,-1.13703 -0.38432,0.2375 -0.69876,0.0644 -0.69876,-0.38472 0,-0.44909 -0.80527,-1.07212 -1.78949,-1.38453 -0.98421,-0.3125 -2.5517,-1.27806 -3.48332,-2.14599 -0.9316,-0.86794 -2.53497,-1.78916 -3.56301,-2.04719 -1.02805,-0.25812 -1.86917,-0.79953 -1.86917,-1.20334 0,-0.40378 -0.55584,-0.73418 -1.2352,-0.73418 -0.67935,0 -1.23519,-0.37057 -1.23519,-0.82347 0,-0.45287 -0.51619,-0.82344 -1.14709,-0.82344 -0.6309,0 -1.3694,-0.57934 -1.6411,-1.2874 -0.27172,-0.70806 -0.86719,-1.05675 -1.3233,-0.77487 -0.4561,0.28187 -0.82927,0.12 -0.82927,-0.35953 0,-0.47963 -0.35147,-0.87206 -0.78104,-0.87206 -0.42956,0 -1.78063,-0.92638 -3.00236,-2.05866 -1.22172,-1.13224 -2.6834,-2.05865 -3.24816,-2.05865 -0.56477,0 -1.24014,-0.55581 -1.50084,-1.23518 -0.26069,-0.67934 -1.00181,-1.23519 -1.64693,-1.23519 -0.6451,0 -1.38622,-0.55584 -1.64692,-1.23518 -0.26068,-0.67938 -1.0018,-1.23522 -1.64692,-1.23522 -0.64511,0 -1.38622,-0.55581 -1.64692,-1.23518 -0.26069,-0.67934 -0.95232,-1.23519 -1.53694,-1.23519 -0.58463,0 -1.52579,-0.74112 -2.09148,-1.64693 -0.56568,-0.90578 -1.49208,-1.6469 -2.05865,-1.6469 -0.56657,0 -1.49297,-0.74113 -2.05865,-1.64694 -0.56569,-0.90581 -1.43525,-1.6469 -1.93235,-1.6469 -0.49712,0 -1.63254,-0.9264 -2.52318,-2.05868 -0.89064,-1.13225 -1.99487,-2.05865 -2.45387,-2.05865 -0.94789,0 -0.9351,0.0125 -20.45592,-19.44177 -7.925813,-7.89864 -15.522243,-15.69366 -16.880952,-17.32228 -1.358709,-1.62862 -3.304136,-3.85955 -4.323172,-4.95767 -1.019032,-1.09813 -1.852786,-2.34715 -1.852786,-2.77562 0,-0.42847 -0.741114,-1.24187 -1.646921,-1.80756 -0.905808,-0.56569 -1.646925,-1.42281 -1.646925,-1.90472 0,-0.4819 -1.259478,-2.25124 -2.798844,-3.93183 -1.539365,-1.68059 -3.009965,-3.6058 -3.268002,-4.27821 -0.25803,-0.67244 -0.851341,-1.22262 -1.318459,-1.22262 -0.467118,0 -0.849304,-0.55581 -0.849304,-1.23519 0,-0.67934 -0.370559,-1.23518 -0.823461,-1.23518 -0.452905,0 -0.823461,-0.50172 -0.823461,-1.11494 0,-0.61321 -0.926395,-2.11455 -2.058655,-3.33627 -1.132256,-1.22175 -2.058651,-2.57281 -2.058651,-3.00237 0,-0.42956 -0.370559,-0.78103 -0.823461,-0.78103 -0.452905,0 -0.823461,-0.55584 -0.823461,-1.23518 0,-0.67938 -0.392427,-1.23522 -0.87206,-1.23522 -0.47963,0 -0.657117,-0.34778 -0.394412,-0.77284 0.262718,-0.42506 -0.05966,-1.07353 -0.71637,-1.44106 -0.656708,-0.3675 -1.144666,-0.85347 -1.084348,-1.07993 0.195406,-0.73363 -3.03198,-5.76421 -3.698044,-5.76421 -0.355253,0 -0.645915,-0.52937 -0.645915,-1.17637 0,-0.64703 -0.506948,-1.68334 -1.12655,-2.30294 -0.619605,-0.61962 -1.385691,-1.94302 -1.702415,-2.94093 -0.316724,-0.99793 -0.892711,-1.8144 -1.279972,-1.8144 -0.387259,0 -1.132141,-1.29693 -1.65529,-2.88209 -0.523152,-1.58518 -1.314872,-2.88211 -1.759384,-2.88211 -0.444508,0 -0.57918,-0.37057 -0.29928,-0.82347 0.279905,-0.45291 0.09462,-0.82347 -0.411731,-0.82347 -0.506361,0 -0.711201,-0.3389 -0.455196,-0.75312 0.256,-0.41422 0.185219,-0.87741 -0.15728,-1.02934 -0.792708,-0.3516 -10.455311,-19.82927 -10.247568,-20.65686 0.08528,-0.33966 -0.277281,-0.61759 -0.805667,-0.61759 -0.528386,0 -0.729542,-0.23125 -0.447012,-0.51369 0.282531,-0.2825 -0.171812,-1.8574 -1.00966,-3.49971 -0.837842,-1.64231 -1.581162,-3.35659 -1.651821,-3.80946 -0.07066,-0.45291 -0.674767,-1.65722 -1.342463,-2.67628 -0.667698,-1.01903 -1.007135,-1.85277 -0.754307,-1.85277 0.252812,0 -0.0026,-0.83375 -0.567694,-1.85278 -0.565059,-1.01903 -0.948654,-2.13072 -0.852434,-2.4704 0.09622,-0.33966 -0.195612,-0.61759 -0.648515,-0.61759 -0.452903,0 -0.779579,-0.27782 -0.725946,-0.6176 0.05363,-0.33968 0.0073,-0.8955 -0.102934,-1.23518 -0.110246,-0.33969 -0.259899,-0.89553 -0.332559,-1.23519 -0.07266,-0.33968 -0.595217,-1.45137 -1.161232,-2.4704 -0.566016,-1.01903 -0.78543,-1.85277 -0.487588,-1.85277 0.297843,0 0.03296,-0.61278 -0.588623,-1.36175 -0.621585,-0.74897 -1.037516,-1.49009 -0.92429,-1.64694 0.113225,-0.15687 0.178328,-0.37781 0.144675,-0.49103 -0.03366,-0.11312 -0.208899,-0.98909 -0.389432,-1.9464 -0.180534,-0.95728 -0.770421,-2.81008 -1.310864,-4.1173 -0.540444,-1.30722 -1.059994,-2.65468 -1.154558,-2.99437 -0.09456,-0.33969 -0.264574,-0.80287 -0.377799,-1.02934 -0.113225,-0.22656 -0.298506,-0.78228 -0.41173,-1.23519 -0.113225,-0.4529 -0.298506,-1.00874 -0.411731,-1.23518 -0.113225,-0.22656 -0.298505,-0.78228 -0.411731,-1.23518 -0.113224,-0.45291 -0.279721,-0.91613 -0.369989,-1.02935 -0.09027,-0.11312 -0.326179,-1.13224 -0.524246,-2.26452 -0.198069,-1.13225 -0.601724,-2.61447 -0.897016,-3.29384 -0.295289,-0.67934 -0.615216,-1.51309 -0.710944,-1.85278 -0.09573,-0.33968 -0.263116,-0.89552 -0.371972,-1.23518 -0.108856,-0.33969 -0.284012,-0.98815 -0.389237,-1.44106 -0.105225,-0.4529 -0.276112,-1.00875 -0.37975,-1.23518 -0.103637,-0.22657 -0.323693,-0.9676 -0.489016,-1.64694 -0.326091,-1.34 -0.980172,-3.98015 -1.632057,-6.5877 -1.088048,-4.35218 -1.350658,-5.5014 -1.693522,-7.41114 -0.545975,-3.04103 -0.993167,-5.10583 -1.605095,-7.41114 -0.300553,-1.13228 -0.675188,-2.98506 -0.832526,-4.1173 -0.157337,-1.13228 -0.515016,-3.35562 -0.794839,-4.94077 -0.279821,-1.58519 -0.6718545,-3.80853 -0.8711821,-4.94078 C 9.2375162,408.53965 8.860987,406.131 8.6001126,404.31941 8.3392382,402.50779 7.962074,399.91389 7.7619707,398.55517 6.0581908,386.98641 5.4902658,375.56497 5.4894602,352.85308 5.4885693,327.73355 6.025414,319.08219 8.632021,302.21022 c 0.209912,-1.35871 0.5676896,-3.76734 0.7950626,-5.3525 0.2273745,-1.58516 0.6294104,-3.99378 0.8934164,-5.35249 0.264006,-1.35871 0.622297,-3.39678 0.796203,-4.52904 0.79314,-5.16397 1.805398,-9.62903 2.401695,-10.59385 0.240027,-0.38838 0.621383,-1.96185 0.84746,-3.49662 0.432248,-2.93441 1.024889,-5.80249 1.342301,-6.49606 0.103637,-0.22647 0.274525,-0.78229 0.379749,-1.23519 0.105225,-0.4529 0.262415,-1.00874 0.34931,-1.23519 0.158206,-0.4123 0.654563,-2.39099 1.084464,-4.32317 0.125962,-0.56613 0.533625,-1.51718 0.905919,-2.11344 0.372293,-0.59626 0.457727,-1.30328 0.189853,-1.57116 -0.267875,-0.26787 -0.07433,-0.98433 0.430101,-1.59213 0.50443,-0.60781 0.641121,-1.10509 0.303759,-1.10509 -0.337363,0 -0.152084,-0.55584 0.41173,-1.2352 0.563815,-0.67935 0.749094,-1.23519 0.411731,-1.23519 -0.337363,0 -0.233687,-0.4632 0.23039,-1.02932 0.68275,-0.83289 1.88132,-4.3248 3.109118,-9.05808 0.08811,-0.33968 0.252843,-0.80287 0.366068,-1.02932 0.113224,-0.22644 0.298505,-0.78229 0.41173,-1.2352 0.113225,-0.4529 0.298506,-1.00873 0.411731,-1.23519 0.113225,-0.22643 0.28419,-0.68964 0.379917,-1.02932 0.09573,-0.33968 0.455515,-1.35871 0.799527,-2.26452 1.408117,-3.70768 1.564609,-4.13446 1.66073,-4.52904 0.05516,-0.22643 0.563403,-1.24548 1.129418,-2.26452 0.566016,-1.01903 0.822261,-1.85278 0.569433,-1.85278 -0.252828,0 0.147309,-0.9264 0.889195,-2.05865 0.741885,-1.13226 1.090762,-2.05866 0.775283,-2.05866 -0.315479,0 0.192828,-1.2401 1.129569,-2.75578 0.936745,-1.51568 1.461044,-2.99791 1.16511,-3.29385 -0.295936,-0.29594 -0.105749,-0.53806 0.422646,-0.53806 0.528387,0 0.884517,-0.2779 0.791399,-0.61759 -0.09313,-0.33968 0.447939,-1.77493 1.20235,-3.18945 0.754411,-1.41451 1.139394,-2.8041 0.855523,-3.08798 -0.283874,-0.28387 -0.06194,-0.51613 0.493171,-0.51613 0.555114,0 0.780286,-0.37055 0.500374,-0.82346 -0.279906,-0.4529 -0.1165,-0.82346 0.363133,-0.82346 0.479634,0 0.783952,-0.2779 0.676264,-0.61759 -0.33018,-1.0415 1.993474,-5.9701 2.814678,-5.9701 0.424687,0 0.54314,-0.37055 0.263219,-0.82346 -0.279906,-0.4529 -0.09463,-0.82346 0.41173,-0.82346 0.506361,0 0.710105,-0.34068 0.452761,-0.75707 -0.257343,-0.41639 0.07369,-1.29868 0.735649,-1.96062 0.661951,-0.66196 0.974157,-1.43295 0.693786,-1.71331 -0.280375,-0.28038 -0.05556,-0.50977 0.499542,-0.50977 0.555118,0 0.780286,-0.37055 0.500377,-0.82346 -0.279905,-0.4529 -0.09462,-0.82346 0.411731,-0.82346 0.506361,0 0.691639,-0.37056 0.41173,-0.82346 -0.279906,-0.4529 -0.1405,-0.82346 0.309843,-0.82346 0.450318,0 1.287741,-1.29695 1.860943,-2.88211 0.573205,-1.58517 1.360172,-2.88212 1.748821,-2.88212 0.388652,0 0.477621,-0.37056 0.197718,-0.82346 -0.279905,-0.4529 -0.141468,-0.82346 0.307656,-0.82346 0.449111,0 1.075704,-0.81647 1.392431,-1.81438 0.316724,-0.99791 1.08281,-2.32133 1.702412,-2.94094 0.619602,-0.6196 1.12655,-1.65591 1.12655,-2.30292 0,-0.647 0.392428,-1.17637 0.872061,-1.17637 0.47963,0 0.643042,-0.37056 0.36313,-0.82346 -0.279905,-0.4529 -0.116499,-0.82346 0.363134,-0.82346 0.479633,0 0.87206,-0.55584 0.87206,-1.23519 0,-0.67936 0.370556,-1.23519 0.823461,-1.23519 0.452902,0 0.823461,-0.38606 0.823461,-0.8579 0,-0.47184 0.728301,-1.63963 1.618446,-2.59509 0.890145,-0.95545 1.424113,-2.05164 1.186594,-2.43595 -0.23753,-0.38432 -0.03944,-0.69876 0.440206,-0.69876 0.479633,0 0.87206,-0.55583 0.87206,-1.23519 0,-0.67935 0.370556,-1.23519 0.823461,-1.23519 0.452902,0 0.82346,-0.55583 0.82346,-1.23519 0,-0.67935 0.370556,-1.23519 0.823461,-1.23519 0.452902,0 0.823461,-0.5162 0.823461,-1.14709 0,-0.6309 0.555836,-1.36038 1.235191,-1.62108 0.679358,-0.26069 1.235194,-1.04145 1.235194,-1.73503 0,-0.69357 0.370555,-1.26103 0.823461,-1.26103 0.452902,0 0.82346,-0.51619 0.82346,-1.14709 0,-0.6309 0.555836,-1.36038 1.235191,-1.62108 0.679355,-0.26069 1.235191,-1.04145 1.235191,-1.73502 0,-0.69357 0.382187,-1.26104 0.849308,-1.26104 0.467114,0 1.096907,-0.64847 1.399531,-1.44105 0.64628,-1.69262 1.540056,-2.84781 4.330437,-5.59703 1.127632,-1.11099 1.726134,-2.01999 1.330006,-2.01999 -0.39613,0 0.256125,-0.76801 1.449469,-1.70669 1.193338,-0.93868 2.169705,-2.14649 2.169705,-2.68403 0,-0.53754 0.741114,-1.44018 1.646921,-2.00587 0.905807,-0.56568 1.646924,-1.42081 1.646924,-1.9003 0,-0.47947 1.20431,-2.08219 2.676247,-3.56159 1.471938,-1.4794 5.270151,-5.54242 8.440478,-9.02893 3.170329,-3.48652 6.722599,-7.34639 7.893939,-8.57748 2.01679,-2.11969 14.25523,-13.361722 20.36566,-18.707582 1.55304,-1.35871 3.72116,-3.304137 4.81803,-4.323172 1.09688,-1.019032 2.3449,-1.852786 2.77338,-1.852786 0.42848,0 1.24189,-0.741114 1.80757,-1.646922 0.56569,-0.905807 1.40258,-1.648693 1.85977,-1.650858 0.45719,-0.0022 2.20026,-1.261379 3.87351,-2.798254 1.67325,-1.536877 3.34076,-2.924696 3.70558,-3.084046 2.03279,-0.887895 10.13311,-6.807972 10.13311,-7.405727 0,-0.388783 0.55583,-0.706877 1.23519,-0.706877 0.67935,0 1.23519,-0.370558 1.23519,-0.82346 0,-0.452905 0.55584,-0.823461 1.23519,-0.823461 0.67936,0 1.23519,-0.370558 1.23519,-0.82346 0,-0.452906 0.55584,-0.823464 1.23519,-0.823464 0.67936,0 1.23519,-0.370556 1.23519,-0.823461 0,-0.452902 0.55584,-0.823461 1.2352,-0.823461 0.67935,0 1.23519,-0.370555 1.23519,-0.82346 0,-0.452902 0.2779,-0.738486 0.61759,-0.634624 0.85992,0.262937 5.9701,-2.870087 5.9701,-3.660226 0,-0.355252 0.52937,-0.645917 1.17637,-0.645917 0.64701,0 1.82485,-0.648474 2.61743,-1.441056 0.79258,-0.792583 1.46753,-1.314154 1.49988,-1.159048 0.12906,0.61873 4.58785,-1.831783 4.58785,-2.521438 0,-0.406933 0.37056,-0.510864 0.82346,-0.230968 0.4529,0.279905 0.82346,0.190937 0.82346,-0.197718 0,-0.38865 1.29695,-1.175617 2.88212,-1.748822 1.58516,-0.573201 2.88211,-1.410625 2.88211,-1.860942 0,-0.450318 0.37056,-0.589743 0.82346,-0.309843 0.45291,0.279905 0.82346,0.09462 0.82346,-0.411731 0,-0.506364 0.37056,-0.691642 0.82346,-0.411733 0.45291,0.279906 0.82346,0.09463 0.82346,-0.41173 0,-0.506362 0.37056,-0.69164 0.82347,-0.411731 0.4529,0.279906 0.82346,0.09463 0.82346,-0.41173 0,-0.506361 0.37055,-0.691639 0.82346,-0.41173 0.4529,0.279905 0.82346,0.05475 0.82346,-0.500374 0,-0.555118 0.2294,-0.779911 0.50976,-0.499543 0.28038,0.280374 1.05136,-0.03184 1.71331,-0.693786 0.66195,-0.661952 1.54423,-0.992995 1.96062,-0.735651 0.41639,0.257343 0.75708,0.05359 0.75708,-0.452759 0,-0.506361 0.37055,-0.691642 0.82346,-0.41173 0.4529,0.279906 0.82346,0.09463 0.82346,-0.41173 0,-0.506365 0.37056,-0.691643 0.82346,-0.411731 0.4529,0.279906 0.82346,0.09463 0.82346,-0.411733 0,-0.506362 0.37056,-0.691639 0.82346,-0.41173 0.4529,0.279905 0.82346,0.05475 0.82346,-0.500374 0,-0.555118 0.23225,-0.777045 0.51613,-0.493171 0.28387,0.283874 1.67347,-0.101125 3.08798,-0.855523 1.41452,-0.754411 2.84977,-1.295469 3.18945,-1.202351 0.33967,0.09313 0.61759,-0.262999 0.61759,-0.791398 0,-0.528389 0.24835,-0.712367 0.55186,-0.408843 0.30353,0.303531 1.4152,-0.01375 2.47039,-0.705201 1.05519,-0.691386 1.91852,-1.053726 1.91852,-0.805202 0,0.248531 1.20431,-0.185624 2.67625,-0.964747 1.47193,-0.779134 3.35272,-1.531714 4.17953,-1.672399 0.82681,-0.140684 2.30904,-0.699218 3.29385,-1.241185 0.9848,-0.541967 2.16111,-1.05906 2.61402,-1.149096 0.4529,-0.09004 1.93513,-0.632642 3.29384,-1.205793 1.35871,-0.57315 2.7483,-1.119462 3.08798,-1.214025 0.33968,-0.09456 0.80287,-0.264574 1.02932,-0.377799 0.22644,-0.113225 0.78229,-0.298506 1.2352,-0.411731 0.4529,-0.113225 1.00874,-0.298505 1.23519,-0.41173 0.22644,-0.113225 0.78229,-0.298506 1.23519,-0.411731 0.4529,-0.113225 1.00874,-0.298505 1.23519,-0.41173 0.22647,-0.113225 0.78229,-0.298506 1.23519,-0.411731 0.45291,-0.113225 1.00874,-0.298506 1.23519,-0.41173 0.22644,-0.113225 0.78229,-0.298506 1.2352,-0.411731 0.4529,-0.113225 0.9161,-0.279721 1.02932,-0.369989 0.11322,-0.09027 1.13226,-0.32618 2.26452,-0.524247 1.13226,-0.198068 2.61449,-0.601724 3.29385,-0.897015 0.67935,-0.295293 1.51311,-0.615217 1.85278,-0.710945 0.33968,-0.09573 0.89552,-0.263115 1.23519,-0.371971 0.33968,-0.108856 0.98816,-0.284012 1.44106,-0.389238 0.45291,-0.105225 1.00874,-0.276112 1.23519,-0.379749 0.22644,-0.103637 0.96757,-0.323694 1.64693,-0.489017 1.33999,-0.326091 3.98015,-0.980172 6.58768,-1.632057 L 270.9187,14.8223 c 4.08478,-1.021197 5.46115,-1.345325 6.99942,-1.648326 0.90581,-0.178422 2.57331,-0.509683 3.70557,-0.736135 l 4.11731,-0.823461 c 11.19826,-2.2396531 17.73707,-3.2353365 27.58595,-4.2005909 1.81159,-0.1775496 5.3319,-0.6009927 7.82286,-0.9409832 5.4823,-0.7482739 56.7155,-0.7661992 64.22998,-0.022469 12.56241,1.2433326 20.89277,2.2793796 26.76247,3.3284576 1.35872,0.2428375 3.76734,0.6662245 5.35252,0.9408585 1.58516,0.274634 3.8085,0.689027 4.94077,0.920873 1.13225,0.231847 2.98503,0.531614 4.11731,0.666149 1.13224,0.134534 2.05865,0.339684 2.05865,0.455887 0,0.116202 0.74109,0.322964 1.6469,0.45947 0.90581,0.136506 2.57334,0.49299 3.70559,0.792185 1.13224,0.299197 2.79977,0.665173 3.70558,0.813284 0.90578,0.148109 1.83219,0.356613 2.05865,0.463338 0.22657,0.106725 0.78228,0.28014 1.23519,0.385367 0.4529,0.105224 1.00875,0.262415 1.23518,0.349309 0.22657,0.08689 1.06022,0.314917 1.85278,0.506716 l 2.88212,0.697454 c 0.79259,0.191799 1.62634,0.433519 1.85281,0.537155 0.22656,0.103637 0.78228,0.274524 1.23518,0.379749 0.45291,0.105225 1.10137,0.280384 1.44106,0.389238 0.33966,0.108856 0.8955,0.276243 1.23519,0.371971 0.33968,0.09573 1.17343,0.415654 1.85277,0.710945 0.67938,0.29529 2.16159,0.698948 3.29387,0.897015 1.13225,0.198069 2.15128,0.433978 2.2645,0.524247 0.11312,0.09027 0.57643,0.256762 1.02934,0.369989 0.4529,0.113225 1.00874,0.298506 1.23518,0.411731 0.22656,0.113224 0.78228,0.298505 1.23519,0.41173 0.4529,0.113225 1.00874,0.298506 1.23518,0.411731 0.22656,0.113224 0.78231,0.298505 1.23522,0.41173 0.4529,0.113225 1.00871,0.298506 1.23518,0.411731 0.22656,0.113225 0.78228,0.298506 1.23519,0.41173 0.4529,0.113225 1.00874,0.298506 1.23518,0.411731 0.22656,0.113225 0.68966,0.283237 1.02934,0.377799 0.33969,0.09456 1.72928,0.640875 3.08796,1.214025 1.35872,0.573151 2.84097,1.115757 3.29387,1.205793 0.45291,0.09004 1.65722,0.622115 2.67625,1.182398 1.01903,0.560283 1.85277,0.775007 1.85277,0.477165 0,-0.297843 0.55585,-0.08023 1.23519,0.483586 0.67937,0.563815 1.23521,0.785924 1.23521,0.493576 0,-0.292349 0.86331,0.03414 1.9185,0.725522 1.05518,0.691384 2.16687,1.008725 2.4704,0.7052 0.30344,-0.303524 0.55184,-0.119546 0.55184,0.408841 0,0.528389 0.27781,0.881979 0.61763,0.78576 0.33965,-0.09622 1.45134,0.287375 2.47037,0.852433 1.01903,0.565058 1.85277,0.813442 1.85277,0.551964 0,-0.261468 1.60637,0.46598 3.56971,1.616572 1.96334,1.150594 3.81615,1.84557 4.11731,1.544393 0.30125,-0.301187 0.54759,-0.09341 0.54759,0.461705 0,0.555115 0.37056,0.780286 0.82347,0.500374 0.4529,-0.279906 0.82346,-0.09463 0.82346,0.41173 0,0.506365 0.37057,0.691643 0.82347,0.411734 0.45291,-0.279906 0.82347,-0.05475 0.82347,0.500374 0,0.555117 0.22406,0.785367 0.49762,0.511667 0.53759,-0.537592 10.43951,4.347253 10.89529,5.374913 0.15187,0.342496 0.61512,0.413268 1.02934,0.15725 0.41422,-0.256 0.75312,-0.05116 0.75312,0.455199 0,0.506361 0.37057,0.691639 0.82347,0.41173 0.45291,-0.279905 0.82344,-0.185124 0.82344,0.210625 0,0.700742 4.88405,3.365927 5.82305,3.177599 0.25875,-0.05191 1.11902,0.554102 1.91162,1.346684 0.79259,0.79258 1.9704,1.441056 2.61743,1.441056 0.647,0 1.17637,0.392428 1.17637,0.872058 0,0.479633 0.37056,0.643042 0.82347,0.363133 0.4529,-0.279905 0.82343,-0.116499 0.82343,0.363134 0,0.47963 0.55585,0.872057 1.23522,0.872057 0.67934,0 1.23518,0.392428 1.23518,0.872061 0,0.479633 0.37057,0.643042 0.82347,0.36313 0.45291,-0.279905 0.82344,-0.116499 0.82344,0.363134 0,0.479633 0.55584,0.872061 1.23521,0.872061 0.67934,0 1.23519,0.290655 1.23519,0.645914 0,0.790142 5.11017,3.923157 5.97008,3.660226 0.33968,-0.103844 0.61759,0.181718 0.61759,0.634623 0,0.452906 0.35147,0.823464 0.78106,0.823464 0.42956,0 1.69465,0.846733 2.81134,1.881634 1.11668,1.034897 3.08118,2.424488 4.36561,3.087977 1.28438,0.663489 3.25787,2.040102 4.38549,3.059134 1.12766,1.019032 2.47759,1.852786 2.9999,1.852786 0.52228,0 1.16294,0.555837 1.42363,1.235191 0.26062,0.679358 1.04143,1.235194 1.73502,1.235194 0.69356,0 1.26103,0.320162 1.26103,0.711468 0,0.391311 1.55218,1.780902 3.44931,3.08798 3.37005,2.321911 5.5462,4.155375 9.73494,8.202004 1.13716,1.098563 2.31015,1.997386 2.60665,1.997386 0.29656,0 1.77475,1.151116 3.28496,2.558041 5.26212,4.902211 29.93903,29.730267 32.5214,32.720617 1.43072,1.65675 3.65409,4.22149 4.94077,5.69941 1.28669,1.47792 3.08056,3.65263 3.98637,4.8327 0.90581,1.18007 2.23105,2.77835 2.94502,3.55174 0.71394,0.77339 1.53606,2.02633 1.82693,2.78431 0.29094,0.75799 0.91103,1.37815 1.37816,1.37815 0.46712,0 0.84931,0.56747 0.84931,1.26103 0,0.69358 0.55581,1.47434 1.23518,1.73503 0.67935,0.26069 1.23519,0.93607 1.23519,1.50084 0,0.56476 0.9264,2.02644 2.05865,3.24817 1.13228,1.22172 2.05865,2.57278 2.05865,3.00235 0,0.42957 0.37056,0.78104 0.82347,0.78104 0.4529,0 0.82346,0.55583 0.82346,1.23519 0,0.67935 0.37057,1.23519 0.82347,1.23519 0.45291,0 0.82344,0.55584 0.82344,1.23519 0,0.67936 0.37056,1.23519 0.82346,1.23519 0.45291,0 0.82347,0.55584 0.82347,1.2352 0,0.67935 0.37056,1.23519 0.82347,1.23519 0.4529,0 0.82347,0.55583 0.82347,1.23519 0,0.67936 0.37056,1.23519 0.82346,1.23519 0.45288,0 0.82344,0.55584 0.82344,1.23519 0,0.67936 0.39243,1.23519 0.87206,1.23519 0.47965,0 0.64306,0.37056 0.36315,0.82346 -0.28,0.45291 -0.15656,0.82347 0.27375,0.82347 0.43053,0 1.01531,0.92639 1.29947,2.05865 0.28406,1.13226 0.88022,2.05865 1.32446,2.05865 0.44428,0 0.80778,0.55584 0.80778,1.23519 0,0.67936 0.37057,1.2352 0.82347,1.2352 0.45291,0 0.75881,0.2779 0.67975,0.61759 -0.23844,1.02411 2.00043,5.14663 2.79487,5.14663 0.40693,0 0.51087,0.37056 0.23094,0.82347 -0.28,0.4529 -0.19094,0.82346 0.19781,0.82346 0.38865,0 1.17562,1.29695 1.74884,2.88211 0.57318,1.58516 1.41062,2.88211 1.86093,2.88211 0.45031,0 0.58975,0.37056 0.31,0.82346 -0.28,0.45291 -0.0947,0.82346 0.41172,0.82346 0.50637,0 0.69165,0.37056 0.41175,0.82347 -0.28,0.4529 -0.0947,0.82346 0.41171,0.82346 0.50638,0 0.69166,0.37055 0.41172,0.82346 -0.28,0.4529 -0.0947,0.82346 0.41175,0.82346 0.50634,0 0.69162,0.37056 0.41172,0.82346 -0.28,0.4529 -0.0547,0.82346 0.50037,0.82346 0.55513,0 0.77991,0.22941 0.49956,0.50977 -0.28031,0.28037 0.0319,1.05135 0.69378,1.71331 0.66194,0.66194 0.993,1.54422 0.73566,1.96062 -0.25719,0.41639 -0.0538,0.75707 0.45275,0.75707 0.50637,0 0.69165,0.37055 0.41172,0.82346 -0.28,0.4529 -0.0947,0.82346 0.41174,0.82346 0.50638,0 0.69163,0.37056 0.41172,0.82346 -0.28,0.45291 -0.0547,0.82346 0.50038,0.82346 0.55512,0 0.77815,0.23116 0.49562,0.51369 -0.2825,0.28253 0.28656,2.04268 1.2644,3.91145 0.97794,1.86876 1.70319,3.67566 1.61166,4.01534 -0.0916,0.33968 0.26593,0.6176 0.79424,0.6176 0.52838,0 0.72669,0.23399 0.44069,0.51999 -0.28594,0.286 -0.0838,1.30504 0.44944,2.26452 0.53318,0.95949 0.89071,2.02244 0.7945,2.36212 -0.0963,0.33967 0.2575,0.61759 0.78574,0.61759 0.52838,0 0.71238,0.24835 0.40885,0.55186 -0.30344,0.30353 0.0125,1.4152 0.70521,2.47038 0.69138,1.05519 1.05019,1.91853 0.79738,1.91853 -0.25281,0 -0.001,0.83375 0.559,1.85279 0.56028,1.01903 1.09237,2.22334 1.1824,2.67624 0.09,0.45291 0.63262,1.93514 1.20578,3.29385 0.57315,1.35871 1.11946,2.7483 1.21403,3.08798 0.0947,0.33968 0.26468,0.80287 0.37781,1.02933 0.11312,0.22643 0.25219,0.7514 0.30875,1.16657 0.0566,0.41515 0.38087,1.03275 0.72053,1.37243 0.33968,0.33967 0.61759,1.08755 0.61759,1.66194 0,0.57439 0.43215,2.0875 0.96034,3.36246 0.52819,1.27498 1.03769,2.59604 1.13225,2.93572 0.0947,0.33968 0.26094,0.89552 0.36984,1.2352 0.10875,0.33967 0.28406,0.98815 0.38925,1.44105 0.10531,0.4529 0.29406,1.10138 0.41969,1.44106 0.12562,0.33968 0.321,0.98815 0.43422,1.44105 0.11312,0.45291 0.29843,1.00875 0.41171,1.2352 0.11313,0.22646 0.29844,0.78228 0.41175,1.23519 0.11313,0.4529 0.28063,0.9161 0.37178,1.02933 0.0913,0.11321 0.32288,0.85434 0.51469,1.64692 l 0.69743,2.88211 c 0.19188,0.79258 0.41985,1.62634 0.50672,1.85279 0.0869,0.22644 0.24406,0.78229 0.34931,1.23519 0.10532,0.4529 0.27625,1.00874 0.37975,1.23519 0.10375,0.22647 0.32372,0.96757 0.48903,1.64693 0.3261,1.33999 0.98016,3.98014 1.63206,6.58768 1.06206,4.2483 1.34831,5.48281 1.67115,7.20749 0.525,2.80459 1.03222,5.29148 1.63706,8.02654 0.30032,1.35871 0.68903,3.30514 0.86344,4.32538 0.17437,1.02025 0.52072,2.87304 0.7695,4.11731 0.24875,1.24427 0.6205,3.37398 0.826,4.73269 0.20562,1.35871 0.56459,3.58206 0.79799,4.94077 0.44725,2.60374 1.14956,7.93939 1.68006,12.76366 1.30909,11.90475 1.74803,39.98275 0.86897,55.58362 -0.97178,17.24584 -1.94728,26.5811 -4.1734,39.93785 -0.22656,1.35872 -0.57553,3.48943 -0.77571,4.7349 -0.2,1.24549 -0.5781,3.37621 -0.83978,4.73492 -0.26188,1.35869 -0.6065,3.2115 -0.76616,4.11731 -0.15969,0.90578 -0.38487,1.6469 -0.50047,1.6469 -0.20718,0 -0.49196,1.30684 -1.16646,5.35252 -0.18875,1.13225 -0.42138,2.05865 -0.51694,2.05865 -0.0956,0 -0.29344,0.74109 -0.43975,1.6469 -0.3125,1.93478 -0.96484,4.7663 -1.23312,5.35249 -0.10375,0.22656 -0.27469,0.78231 -0.37975,1.23522 -0.10531,0.4529 -0.2625,1.00871 -0.34931,1.23518 -0.0869,0.22656 -0.3285,1.15284 -0.53694,2.05865 -0.5669,2.46384 -0.99362,4.06849 -1.20437,4.52902 -0.10375,0.22657 -0.27469,0.78232 -0.37975,1.23522 -0.10531,0.45291 -0.28031,1.10137 -0.38925,1.44106 -0.10875,0.33966 -0.29062,0.98815 -0.40378,1.44103 -0.11312,0.4529 -0.29843,1.00875 -0.41175,1.23521 -0.11312,0.22657 -0.28406,0.68966 -0.3799,1.02931 -0.0956,0.33969 -0.41566,1.17344 -0.71094,1.85281 -0.29531,0.67934 -0.69897,2.16156 -0.89703,3.29384 -0.19812,1.13225 -0.43397,2.15128 -0.52425,2.26452 -0.0903,0.11313 -0.23281,0.48379 -0.31709,0.82344 -0.0841,0.33969 -0.79347,2.08725 -1.57628,3.88349 -0.78284,1.79625 -1.56656,4.01959 -1.74159,4.94077 -0.175,0.92119 -0.39206,1.76753 -0.48234,1.88075 -0.0903,0.11312 -0.22344,0.48378 -0.29625,0.82346 -0.0725,0.33966 -0.59519,1.45135 -1.16122,2.47037 -0.56599,1.01903 -0.82224,1.85281 -0.56943,1.85281 0.25281,0 -0.14719,0.92638 -0.88919,2.05865 -0.74187,1.13225 -1.11243,2.05866 -0.82346,2.05866 0.28906,0 -0.0816,0.92637 -0.82347,2.05865 -0.74187,1.13224 -1.10794,2.05865 -0.81347,2.05865 0.29438,0 0.0731,0.83375 -0.49197,1.85278 -0.56506,1.01903 -0.94865,2.13071 -0.85243,2.47037 0.0963,0.33968 -0.2575,0.61762 -0.78575,0.61762 -0.5284,0 -0.73393,0.22687 -0.45675,0.50394 0.27719,0.27718 -0.58778,2.43843 -1.92215,4.8028 -1.33434,2.36434 -2.17871,4.54617 -1.8764,4.84852 0.3025,0.30218 0.1175,0.54972 -0.41097,0.54972 -0.5284,0 -0.86809,0.29718 -0.75484,0.66056 0.31987,1.0264 -3.69037,9.22098 -4.51255,9.22098 -0.40222,0 -0.50228,0.37056 -0.2225,0.82346 0.28,0.45291 0.0947,0.82347 -0.41172,0.82347 -0.50638,0 -0.69166,0.37053 -0.41172,0.82344 0.28,0.4529 0.17281,0.82346 -0.23812,0.82346 -0.41085,0 -1.44519,1.57487 -2.29853,3.49971 -0.85334,1.92484 -2.02075,3.98884 -2.59421,4.58662 -0.57347,0.59781 -1.26869,1.9874 -1.54491,3.08799 -0.27625,1.10059 -0.80765,2.00106 -1.18093,2.00106 -0.37328,0 -0.93428,0.80528 -1.24665,1.78949 -0.3125,0.98422 -1.25094,2.52256 -2.08569,3.41856 -0.83475,0.89597 -1.32337,1.9435 -1.08584,2.32781 0.2375,0.38431 0.0394,0.69875 -0.44022,0.69875 -0.47962,0 -0.87206,0.55584 -0.87206,1.23521 0,0.67934 -0.37056,1.23519 -0.82346,1.23519 -0.45291,0 -0.82344,0.55584 -0.82344,1.23518 0,0.67934 -0.37056,1.23519 -0.82347,1.23519 -0.4529,0 -0.82346,0.55584 -0.82346,1.23518 0,0.67937 -0.37056,1.23522 -0.82347,1.23522 -0.45291,0 -0.82347,0.55581 -0.82347,1.23518 0,0.67934 -0.37056,1.23519 -0.82346,1.23519 -0.45288,0 -0.82344,0.55584 -0.82344,1.23518 0,0.67937 -0.37056,1.23522 -0.82347,1.23522 -0.4529,0 -0.82346,0.35146 -0.82346,0.78103 0,0.42956 -0.92641,1.78062 -2.05865,3.00233 -1.13225,1.22175 -2.05866,2.72306 -2.05866,3.33628 0,0.61321 -0.38218,1.11496 -0.84931,1.11496 -0.46712,0 -1.07756,0.59481 -1.35653,1.32181 -0.27906,0.727 -1.7478,2.67243 -3.26405,4.32318 -1.51628,1.65075 -2.75862,3.3754 -2.76078,3.83259 -0.002,0.45718 -0.74506,1.29409 -1.65087,1.85977 -0.90581,0.56569 -1.6469,1.36744 -1.6469,1.78165 0,0.41422 -1.01906,1.84256 -2.26453,3.17409 -1.24549,1.33153 -3.37621,3.75196 -4.73489,5.37877 -2.40375,2.87799 -29.36256,30.00875 -34.86086,35.08317 -1.51022,1.39378 -3.02384,2.53415 -3.36359,2.53415 -0.33975,0 -1.58515,1.01903 -2.76752,2.26453 -1.18241,1.2455 -3.14043,3.00562 -4.35124,3.91143 -1.21078,0.90581 -2.89853,2.2954 -3.75052,3.08799 -0.85203,0.79259 -1.93131,1.44106 -2.39844,1.44106 -0.46712,0 -1.06259,0.55584 -1.32331,1.23518 -0.26062,0.67935 -1.00181,1.23519 -1.6469,1.23519 -0.64512,0 -1.38625,0.55584 -1.64693,1.23522 -0.26063,0.67934 -1.00181,1.23518 -1.64691,1.23518 -0.64512,0 -1.38624,0.55584 -1.64693,1.23518 -0.26062,0.67935 -0.99018,1.23519 -1.62109,1.23519 -0.6309,0 -1.14709,0.37056 -1.14709,0.82347 0,0.4529 -0.50172,0.82346 -1.11494,0.82346 -0.61321,0 -2.11455,0.92638 -3.33627,2.05865 -1.22175,1.13225 -2.57281,2.05866 -3.00237,2.05866 -0.42956,0 -0.78103,0.39243 -0.78103,0.87206 0,0.47962 -0.34778,0.65712 -0.77284,0.3944 -0.42509,-0.26281 -1.07356,0.0597 -1.44106,0.71638 -0.36753,0.65671 -0.95531,1.20481 -1.30618,1.21799 -1.11156,0.0419 -5.53799,2.89075 -5.53799,3.5644 0,0.35525 -0.52937,0.64591 -1.17637,0.64591 -0.647,0 -1.67262,0.46321 -2.27912,1.02934 -0.60653,0.56612 -2.85634,1.94796 -4.99959,3.07077 -2.14327,1.12281 -3.89683,2.34897 -3.89683,2.72484 0,0.37587 -0.37056,0.45437 -0.82347,0.17437 -0.4529,-0.28 -0.82346,-0.19093 -0.82346,0.19782 0,0.38865 -1.29694,1.17562 -2.88212,1.7488 -1.58516,0.57322 -2.88209,1.41063 -2.88209,1.86094 0,0.45034 -0.37056,0.58975 -0.82347,0.31 -0.4529,-0.28 -0.82346,-0.0947 -0.82346,0.41175 0,0.50634 -0.37057,0.69162 -0.82347,0.41171 -0.45291,-0.27999 -0.82347,-0.18156 -0.82347,0.21844 0,0.79566 -9.91088,5.63174 -10.91085,5.32402 -0.33969,-0.10437 -0.61759,0.2025 -0.61759,0.682 0,0.47965 -0.37056,0.64306 -0.82347,0.36315 -0.4529,-0.27999 -0.82346,-0.0947 -0.82346,0.41172 0,0.50638 -0.37057,0.69163 -0.82347,0.41172 -0.45288,-0.28 -0.82344,-0.0547 -0.82344,0.50037 0,0.55513 -0.23218,0.77707 -0.51615,0.49319 -0.28375,-0.28375 -1.67347,0.10125 -3.08796,0.85553 -1.41453,0.7544 -2.84978,1.29547 -3.18947,1.20234 -0.33965,-0.0931 -0.61759,0.26313 -0.61759,0.79141 0,0.52837 -0.23406,0.72668 -0.52,0.44068 -0.28593,-0.28593 -1.30503,-0.0838 -2.26449,0.44944 -0.9595,0.53318 -2.02247,0.89072 -2.36212,0.7945 -0.33969,-0.0962 -0.61759,0.2575 -0.61759,0.78575 0,0.5284 -0.24844,0.71237 -0.55188,0.40884 -0.30343,-0.30344 -1.41518,0.0125 -2.47037,0.70522 -1.05521,0.69137 -1.91852,1.05018 -1.91852,0.79737 0,-0.25281 -0.83375,0.003 -1.85281,0.56943 -1.01903,0.566 -2.13069,1.08856 -2.47037,1.16122 -0.33969,0.0725 -0.71025,0.20688 -0.82347,0.29812 -0.11312,0.0913 -0.76168,0.28594 -1.44106,0.43291 -0.67934,0.14687 -2.34687,0.73587 -3.70555,1.30903 -1.35872,0.57315 -2.74831,1.11946 -3.088,1.21403 -0.33968,0.0947 -0.80287,0.26468 -1.02931,0.37781 -0.22656,0.11312 -0.78231,0.29844 -1.23521,0.41172 -0.45291,0.11312 -1.00872,0.29843 -1.23519,0.41175 -0.22656,0.11312 -0.78228,0.29843 -1.23518,0.41171 -0.45291,0.11313 -1.00875,0.29844 -1.23519,0.41172 -0.22656,0.11313 -0.78231,0.29844 -1.23521,0.41175 -0.45291,0.11313 -0.91609,0.27969 -1.02931,0.36997 -0.11313,0.0903 -1.13225,0.32619 -2.26453,0.52425 -1.13225,0.19812 -2.61449,0.60175 -3.29383,0.89703 -0.67938,0.29531 -1.51313,0.61521 -1.85278,0.71093 -0.33969,0.0956 -0.71025,0.24875 -0.82347,0.34 -0.31687,0.25531 -2.38596,0.747 -5.55836,1.32056 -1.58518,0.28656 -3.28677,0.85362 -3.78134,1.26003 -0.49459,0.40637 -1.13412,0.50403 -1.42115,0.21687 -0.28719,-0.28718 -1.02818,-0.10187 -1.64693,0.41172 -0.61875,0.51353 -1.35988,0.69881 -1.64694,0.41175 -0.28718,-0.28719 -0.99406,-0.14906 -1.57115,0.30656 -0.57706,0.45572 -1.60506,0.84931 -2.2844,0.87469 -0.67937,0.025 -2.16159,0.28125 -3.29387,0.56834 -1.13225,0.28719 -2.8934,0.67847 -3.91365,0.86947 -1.02024,0.19093 -2.68774,0.52987 -3.70555,0.75309 -1.01784,0.22312 -3.14756,0.62606 -4.73271,0.89512 -1.58515,0.26906 -3.80849,0.66372 -4.94077,0.87694 -3.91955,0.73815 -11.19254,1.81434 -16.05749,2.37602 -1.35872,0.15688 -4.50843,0.52135 -6.99943,0.80994 -7.17751,0.83156 -12.11378,1.19631 -21.8217,1.61246 -4.98195,0.21344 -11.65197,0.62663 -14.82231,0.91791 -3.1703,0.29125 -5.99336,0.29781 -6.27345,0.0156 z m 153.05541,-186.5444 c 0.11312,-0.12156 0.48378,-0.28562 0.82346,-0.3644 2.39469,-0.55609 4.32315,-1.52703 4.32315,-2.17662 0,-0.42238 0.43934,-0.76797 0.97628,-0.76797 1.32237,0 4.78796,-3.3324 4.78796,-4.60396 0,-0.56265 0.34278,-1.14653 0.76171,-1.29749 0.41894,-0.15094 0.88213,-0.83035 1.02931,-1.50969 0.14719,-0.67934 0.57844,-1.46268 0.95835,-1.74071 2.16321,-1.58322 0.32818,-18.8458 -2.00331,-18.8458 -0.41034,0 -0.74606,-0.44294 -0.74606,-0.98428 0,-1.35291 -4.17706,-5.60343 -5.50655,-5.60343 -0.59463,0 -1.08113,-0.37056 -1.08113,-0.82347 0,-0.4529 -0.55584,-0.82346 -1.23521,-0.82346 -0.67934,0 -1.23519,-0.3635 -1.23519,-0.80775 0,-0.44428 -0.9264,-1.04028 -2.05865,-1.32447 -1.13225,-0.28406 -2.05865,-0.77549 -2.05865,-1.09181 0,-0.31631 -2.68652,-1.85099 -5.97008,-3.41043 -3.28356,-1.55943 -6.09439,-3.11555 -6.2463,-3.45805 -0.15187,-0.3425 -0.61512,-0.41328 -1.02934,-0.15719 -0.41422,0.25594 -0.75312,0.0512 -0.75312,-0.45518 0,-0.50638 -0.37056,-0.69166 -0.82347,-0.41175 -0.45291,0.28 -0.82344,0.0947 -0.82344,-0.41172 0,-0.50638 -0.37056,-0.69166 -0.82346,-0.41172 -0.45291,0.28 -0.82347,0.0947 -0.82347,-0.41175 0,-0.50634 -0.33891,-0.71118 -0.75312,-0.45518 -0.41422,0.25593 -0.87744,0.14218 -1.02934,-0.25282 -0.24907,-0.64765 -12.56613,-7.10395 -14.07779,-7.3792 -0.34443,-0.0628 -1.73402,-0.6869 -3.08799,-1.38706 -1.35396,-0.70015 -2.46174,-1.06968 -2.46174,-0.82115 0,0.24843 -0.86334,-0.11375 -1.91853,-0.80522 -1.05519,-0.69137 -2.16687,-1.00872 -2.4704,-0.70519 -0.30344,0.30344 -0.55184,0.11938 -0.55184,-0.40884 0,-0.5284 -0.27782,-0.91684 -0.6176,-0.86318 -0.33968,0.0537 -0.89552,0.006 -1.23518,-0.10282 -0.33969,-0.11031 -0.89553,-0.26 -1.23522,-0.33256 -0.33965,-0.0725 -1.35871,-0.54565 -2.26449,-1.05106 -0.90581,-0.5054 -1.83222,-0.92943 -2.05865,-0.94225 -0.22656,-0.0125 -1.52341,-0.45671 -2.88212,-0.98643 -1.35872,-0.52972 -3.02624,-1.08325 -3.70559,-1.23009 -0.67934,-0.14688 -1.32784,-0.34163 -1.44106,-0.43288 -0.11312,-0.0913 -0.5764,-0.25875 -1.02931,-0.37181 -0.4529,-0.11312 -1.00874,-0.29843 -1.23521,-0.41172 -0.22656,-0.11312 -0.78228,-0.29843 -1.23519,-0.41174 -0.4529,-0.11313 -1.00874,-0.29844 -1.23518,-0.41172 -0.22656,-0.11313 -0.78228,-0.29844 -1.23519,-0.41175 -0.4529,-0.11313 -1.00874,-0.29844 -1.23518,-0.41172 -0.22656,-0.11312 -0.78231,-0.29844 -1.23522,-0.41175 -0.4529,-0.11312 -1.00871,-0.29844 -1.23518,-0.41172 -0.22656,-0.11312 -0.78228,-0.29843 -1.23519,-0.41171 -0.4529,-0.11313 -1.00874,-0.29844 -1.23518,-0.41175 -0.22656,-0.11313 -0.78231,-0.29844 -1.23522,-0.41172 -0.4529,-0.11313 -1.00871,-0.29844 -1.23518,-0.41175 -0.22656,-0.11312 -0.78228,-0.29844 -1.23519,-0.41172 -0.4529,-0.11312 -1.10137,-0.30875 -1.44106,-0.43422 -0.33968,-0.12562 -0.98815,-0.31446 -1.44106,-0.41968 -0.4529,-0.10531 -1.10137,-0.28031 -1.44105,-0.38922 -0.33969,-0.10875 -0.98816,-0.29062 -1.44106,-0.40381 -0.45291,-0.11313 -0.9161,-0.28063 -1.02931,-0.37178 -0.11313,-0.0913 -0.85435,-0.32288 -1.64694,-0.51466 -2.36927,-0.57337 -3.43415,-0.89625 -4.73489,-1.43574 -0.67935,-0.28188 -2.16159,-0.68932 -3.29384,-0.90563 -2.26537,-0.43281 -5.22514,-1.13849 -10.91088,-2.6014 -1.01903,-0.26218 -2.5939,-0.61278 -3.49971,-0.77909 -0.90578,-0.16625 -2.57331,-0.53687 -3.70556,-0.82344 -3.89024,-0.98468 -8.16288,-1.82849 -16.46921,-3.25258 -11.41394,-1.95684 -21.75058,-3.26868 -32.52674,-4.12802 -6.2322,-0.497 -42.13561,-1.54581 -47.76073,-1.39519 -15.8803,0.42519 -34.18442,1.37909 -42.40825,2.21006 -16.37973,1.65506 -23.80438,2.56659 -33.96777,4.17033 -1.24548,0.19657 -3.28355,0.5051 -4.52903,0.68572 -3.31351,0.48047 -8.54996,1.34425 -10.91086,1.79978 -1.13226,0.21844 -2.98505,0.54862 -4.11731,0.73368 -1.96435,0.32107 -4.37599,0.79097 -8.44047,1.64459 -1.75981,0.36963 -4.81044,0.94097 -8.44048,1.58078 -0.90581,0.15969 -1.64692,0.38488 -1.64692,0.5005 0,0.11563 -0.74112,0.32188 -1.64693,0.45837 -0.9058,0.13657 -2.57331,0.47875 -3.70557,0.76057 -1.13226,0.28187 -2.95908,0.69803 -4.0596,0.9249 -1.10053,0.22687 -2.39748,0.66062 -2.88212,0.96394 -0.48464,0.30343 -1.3999,0.6299 -2.03391,0.72574 -0.63402,0.0959 -1.4621,0.66213 -1.84018,1.25834 -0.37809,0.59625 -0.70489,0.71353 -0.72622,0.26063 -0.0213,-0.45291 -0.49022,-0.24469 -1.04194,0.46275 -0.55172,0.70743 -1.66002,1.53278 -2.46287,1.83412 -0.80286,0.30125 -1.7013,1.20475 -1.99656,2.00762 -0.29525,0.80284 -1.03575,1.76043 -1.64556,2.12793 -0.60981,0.36753 -0.8938,1.016 -0.6311,1.44106 0.26272,0.42506 0.0633,0.77284 -0.44301,0.77284 -0.50636,0 -0.70746,0.34497 -0.4469,0.76656 0.26056,0.42163 0.0911,1.00306 -0.37656,1.29209 -0.46767,0.28907 -0.65295,0.84491 -0.41173,1.23522 0.24122,0.39031 0.15463,0.88506 -0.19243,1.09944 -0.50041,0.30906 -0.72057,10.01729 -0.22716,10.01729 0.0717,0 0.29872,0.92637 0.50461,2.05865 0.2059,1.13225 0.73419,2.18215 1.174,2.33312 0.4398,0.15093 0.79964,0.79946 0.79964,1.44106 0,0.64162 0.34559,1.16659 0.76797,1.16659 0.42239,0 1.01273,0.77115 1.31188,1.71368 0.58076,1.82978 7.60709,6.73836 8.6887,6.06989 0.35536,-0.21968 0.85743,-0.0575 1.11572,0.36053 0.48653,0.78722 11.66815,0.54982 15.28995,-0.32465 1.13226,-0.27344 2.79977,-0.64303 3.70557,-0.82144 0.90581,-0.17843 2.57332,-0.50968 3.70558,-0.73615 l 4.11731,-0.82347 4.1173,-0.82347 c 6.08945,-1.21787 7.35559,-1.44909 13.99884,-2.55627 l 4.94077,-0.82347 c 4.07293,-0.67881 6.80105,-1.09853 10.70499,-1.64693 2.03807,-0.28625 4.63197,-0.66053 5.76423,-0.83166 8.1446,-1.23087 22.35157,-2.62633 33.7619,-3.31621 3.84968,-0.23281 9.59332,-0.66584 12.76365,-0.96243 7.50083,-0.70172 33.34562,-0.69366 42.81998,0.0125 16.79902,1.25362 20.72264,1.56699 23.46863,1.87452 6.65314,0.74513 14.2051,1.77497 17.7044,2.41431 3.50018,0.6395 7.07489,1.22491 9.46982,1.55078 1.13225,0.15406 2.05865,0.37522 2.05865,0.4914 0,0.11625 0.7411,0.34191 1.64691,0.5016 0.90581,0.15968 2.57334,0.4819 3.70558,0.71612 2.73697,0.56616 6.70155,1.31128 8.24908,1.5504 0.68734,0.10625 1.70637,0.47531 2.26452,0.82028 0.55819,0.34497 1.35981,0.41403 1.78141,0.15344 0.42162,-0.26062 1.01493,-0.0719 1.31849,0.41928 0.30344,0.49116 1.05841,0.69869 1.67747,0.46112 0.61903,-0.2375 1.35059,-0.0678 1.62571,0.37744 0.275,0.44513 0.93544,0.74106 1.46744,0.65762 0.53197,-0.0834 1.52306,0.0878 2.2024,0.38032 0.67937,0.2925 1.97631,0.63968 2.88212,0.77128 0.90581,0.13156 2.13477,0.54359 2.73102,0.91552 0.59628,0.37191 1.30331,0.45704 1.57119,0.18907 0.26781,-0.26781 0.98434,-0.0744 1.59212,0.43012 0.60781,0.50441 1.10509,0.64112 1.10509,0.30375 0,-0.33737 0.55584,-0.15219 1.23518,0.41172 0.67938,0.56381 1.23522,0.74909 1.23522,0.41175 0,-0.33738 0.55581,-0.15219 1.23519,0.41172 0.67934,0.56381 1.23518,0.74909 1.23518,0.41174 0,-0.33737 0.46319,-0.24843 1.02934,0.1975 0.56612,0.44591 2.141,1.10953 3.49968,1.47475 3.65787,0.98319 3.6719,0.98731 4.11734,1.21 0.22656,0.11312 0.78227,0.29843 1.23518,0.41175 0.45291,0.11312 1.00875,0.29843 1.23518,0.41171 0.22657,0.11313 0.68966,0.26532 1.02935,0.338 0.33965,0.0728 1.45134,0.59522 2.47037,1.16122 1.01902,0.56603 1.85277,0.82225 1.85277,0.56944 0,-0.25282 0.92641,0.14718 2.05865,0.88918 1.13228,0.74191 2.05866,1.11244 2.05866,0.82347 0,-0.28906 0.9264,0.0816 2.05865,0.82347 1.13228,0.74187 2.05865,1.09074 2.05865,0.77528 0,-0.31547 1.29697,0.22781 2.88212,1.20765 1.58518,0.97968 2.88212,1.56256 2.88212,1.29531 0,-0.26719 1.97599,0.62925 4.39105,1.99221 2.41509,1.363 4.63843,2.23081 4.94077,1.92847 0.30219,-0.30219 0.54972,-0.0956 0.54972,0.45959 0,0.55512 0.37056,0.78028 0.82346,0.50037 0.45291,-0.28 0.82347,-0.0947 0.82347,0.41172 0,0.50638 0.37053,0.69166 0.82344,0.41175 0.4529,-0.28 0.82346,-0.0947 0.82346,0.41172 0,0.50637 0.37056,0.69165 0.82347,0.41172 0.45291,-0.28 0.82347,-0.0947 0.82347,0.41175 0,0.50637 0.37056,0.69162 0.82346,0.41171 0.45291,-0.28 0.82344,-0.0947 0.82344,0.41175 0,0.50634 0.37056,0.69163 0.82347,0.41172 0.4529,-0.28 0.82346,-0.0947 0.82346,0.41175 0,0.50634 0.37057,0.69162 0.82347,0.41172 0.45291,-0.28 0.82347,-0.16219 0.82347,0.26187 0,0.42388 1.91731,1.59547 4.26068,2.60356 2.3434,1.00812 4.77848,2.35068 5.41133,2.98352 0.63284,0.63284 1.67996,1.15062 2.32699,1.15062 0.647,0 1.17637,0.39244 1.17637,0.87207 0,0.47962 0.37057,0.64303 0.82344,0.36312 0.4529,-0.28 0.82347,-0.17281 0.82347,0.23812 0,0.68575 6.19211,3.87925 7.52173,3.87925 0.31659,0 0.80312,0.22749 1.08118,0.50553 0.47391,0.47393 12.15445,0.40103 12.60123,-0.0788 z m 43.64343,-94.26203 c 2.37774,-1.2016 4.32318,-2.53578 4.32318,-2.96484 0,-0.42906 0.51184,-0.78012 1.13743,-0.78012 1.79681,0 6.33143,-6.55943 7.54283,-10.91089 0.0947,-0.33965 0.24594,-0.71021 0.33606,-0.82343 1.44859,-1.81703 1.51153,-12.14201 0.10281,-16.88096 -0.0337,-0.11313 -0.0538,-0.39503 -0.0447,-0.62622 0.0978,-2.46084 -9.14567,-13.51228 -11.33926,-13.55735 -0.56612,-0.0125 -1.02934,-0.39171 -1.02934,-0.84459 0,-0.4529 -0.55581,-0.82347 -1.23519,-0.82347 -0.67934,0 -1.23518,-0.34559 -1.23518,-0.76796 0,-0.42241 -0.83375,-1.02819 -1.85278,-1.34619 -1.01903,-0.31803 -2.03809,-0.85206 -2.26452,-1.18674 -0.7595,-1.12253 -13.79769,-7.33077 -14.31313,-6.81533 -0.28,0.28 -0.50918,0.055 -0.50918,-0.50013 0,-0.55512 -0.37057,-0.78028 -0.82347,-0.50037 -0.45291,0.28 -0.82344,0.0947 -0.82344,-0.41175 0,-0.50634 -0.37056,-0.69162 -0.82346,-0.41172 -0.45291,0.28 -0.82347,0.0947 -0.82347,-0.41172 0,-0.50637 -0.37056,-0.69165 -0.82347,-0.41174 -0.4529,0.28 -0.82346,0.0947 -0.82346,-0.41172 0,-0.50638 -0.37053,-0.69166 -0.82344,-0.41175 -0.45291,0.28 -0.82347,0.0947 -0.82347,-0.41172 0,-0.50637 -0.37056,-0.69165 -0.82346,-0.41175 -0.45291,0.28 -0.82347,0.0947 -0.82347,-0.41172 0,-0.50637 -0.37056,-0.69162 -0.82347,-0.41171 -0.4529,0.28 -0.82346,0.0947 -0.82346,-0.41175 0,-0.50635 -0.34066,-0.71009 -0.75707,-0.45275 -0.41637,0.2575 -1.29868,-0.0737 -1.96062,-0.73566 -0.66196,-0.66193 -1.43293,-0.97415 -1.7133,-0.69378 -0.28032,0.28032 -0.50975,0.0556 -0.50975,-0.49956 0,-0.55509 -0.34069,-0.79875 -0.7571,-0.5414 -0.41637,0.2575 -1.25015,-0.025 -1.85277,-0.62781 -0.60266,-0.60263 -1.46628,-1.16878 -1.91919,-1.25809 -0.4529,-0.0894 -3.69527,-1.65647 -7.20526,-3.48259 -3.51002,-1.82609 -6.38183,-3.10759 -6.38183,-2.84778 0,0.25969 -0.9264,-0.13468 -2.05865,-0.87649 -1.13228,-0.74188 -2.06434,-1.02834 -2.07128,-0.63656 -0.006,0.39174 -0.30094,0.25843 -0.65334,-0.29625 -0.35241,-0.55469 -1.36575,-1.12863 -2.2519,-1.27544 -0.88616,-0.14687 -2.44493,-0.72506 -3.46396,-1.28496 -1.01903,-0.55994 -1.85281,-0.77435 -1.85281,-0.4765 0,0.29781 -0.49728,0.12875 -1.10509,-0.37563 -0.60778,-0.50443 -1.34891,-0.67331 -1.64691,-0.37531 -0.29812,0.29813 -0.54184,0.10938 -0.54184,-0.41887 0,-0.52838 -0.27781,-0.91681 -0.61759,-0.86319 -0.33969,0.0537 -0.8955,0.006 -1.23519,-0.10281 -0.33968,-0.11031 -0.98815,-0.29313 -1.44105,-0.40631 -0.45291,-0.11313 -1.00875,-0.29844 -1.23519,-0.41172 -0.22656,-0.11312 -0.78231,-0.29844 -1.23518,-0.41175 -0.45291,-0.11312 -1.00875,-0.29844 -1.23522,-0.41172 -0.22656,-0.11312 -0.68962,-0.28312 -1.02931,-0.37781 -0.33969,-0.0947 -1.72928,-0.63678 -3.08799,-1.20496 -3.94643,-1.65028 -11.9402,-4.04871 -11.9402,-3.58256 0,0.23438 -0.55581,-0.035 -1.23518,-0.5989 -0.67934,-0.56382 -1.23518,-0.7491 -1.23518,-0.41172 0,0.33734 -0.55585,0.15219 -1.23519,-0.41175 -0.67937,-0.56381 -1.23518,-0.74909 -1.23518,-0.41172 0,0.33734 -0.56482,0.14469 -1.25513,-0.42825 -0.69028,-0.5729 -1.48993,-0.80678 -1.77699,-0.51972 -0.28719,0.28719 -1.01925,0.10907 -1.62703,-0.39521 -0.60781,-0.50441 -1.10509,-0.6411 -1.10509,-0.30375 0,0.33737 -0.46319,0.23218 -1.02934,-0.23344 -0.56613,-0.46578 -2.32628,-1.08137 -3.91143,-1.36797 -3.00918,-0.54406 -5.06508,-1.02309 -5.76424,-1.34305 -0.22656,-0.10375 -0.78228,-0.27469 -1.23518,-0.37975 -0.45291,-0.10532 -1.00875,-0.2625 -1.23519,-0.34932 -0.22656,-0.0869 -0.96756,-0.29312 -1.64693,-0.45859 -3.21109,-0.7814 -4.73799,-1.19318 -7.32252,-1.97474 -1.53643,-0.46463 -3.08568,-0.66419 -3.4428,-0.44347 -0.35713,0.22062 -0.8675,0.0484 -1.13419,-0.38319 -0.26656,-0.43147 -1.12599,-0.79968 -1.90968,-0.81828 -1.70287,-0.0403 -5.54214,-0.68528 -5.54214,-0.93093 0,-0.0956 -0.74113,-0.30438 -1.64694,-0.46403 -2.11468,-0.37272 -6.01973,-1.11744 -8.64632,-1.64891 -1.13225,-0.22906 -2.98506,-0.56793 -4.1173,-0.75299 -1.13228,-0.185 -2.98506,-0.51522 -4.11731,-0.73369 -3.50499,-0.67628 -9.1487,-1.57228 -15.85162,-2.51659 -1.6984,-0.23937 -4.47758,-0.632 -6.17595,-0.87275 -3.93028,-0.55712 -15.28431,-1.67131 -24.90973,-2.4444 -1.58515,-0.12718 -5.66127,-0.53361 -9.05807,-0.90287 -7.94564,-0.86379 -73.53714,-0.88993 -81.11091,-0.0323 -3.17032,0.35899 -7.24645,0.79301 -9.05807,0.96447 -7.26261,0.68741 -12.48495,1.25459 -15.02816,1.63209 -6.85836,1.0181 -8.20298,1.22147 -10.705,1.619 -1.47193,0.23375 -3.78792,0.6105 -5.14663,0.83694 -1.35871,0.22656 -3.48942,0.57553 -4.7349,0.77571 -1.24549,0.20032 -3.19091,0.55141 -4.32317,0.7805 -1.13226,0.22906 -3.17033,0.62216 -4.52904,0.87344 -5.37193,0.99362 -9.28608,1.81465 -11.94018,2.50459 -1.13226,0.29437 -2.79977,0.64684 -3.70558,0.78334 -0.90581,0.13656 -1.64692,0.33775 -1.64692,0.44718 0,0.10938 -1.07588,0.32419 -2.39084,0.47719 -1.31497,0.15312 -2.98248,0.537 -3.70558,0.85328 -0.7231,0.31628 -2.05585,0.709 -2.96165,0.87268 -0.90581,0.16375 -2.20276,0.53453 -2.88211,0.82413 -1.29023,0.54997 -2.32373,0.86646 -4.73491,1.44996 -0.79258,0.19188 -1.44105,0.40544 -1.44105,0.47472 0,0.0694 -0.64848,0.28281 -1.44106,0.47475 l -2.88211,0.69744 c -0.79259,0.19187 -1.44106,0.40543 -1.44106,0.47475 0,0.0694 -0.64848,0.28281 -1.44106,0.47471 -3.01325,0.72922 -3.55033,0.87809 -5.35249,1.48387 -1.01904,0.34253 -1.85279,0.96838 -1.85279,1.39075 0,0.42238 -0.37056,0.76797 -0.82346,0.76797 -1.42155,0 -6.98385,6.08692 -8.8712,9.70788 -0.99405,1.90712 -1.58266,3.4675 -1.30802,3.4675 0.27463,0 0.14897,0.46318 -0.27928,1.02934 -1.38677,1.83334 -1.80745,9.27544 -0.75638,13.38122 0.34783,1.35871 0.6666,2.93358 0.70838,3.49971 0.0418,0.56612 0.40664,1.02934 0.81079,1.02934 0.40415,0 0.52426,0.34069 0.26694,0.75706 -0.25735,0.4164 0.0253,1.25015 0.62781,1.85281 0.60264,0.60262 1.23381,1.46624 1.4026,1.91915 0.36158,0.97022 1.62038,2.56696 3.11472,3.9509 0.58787,0.54443 1.69954,1.59965 2.47038,2.34493 1.32082,1.27706 7.29244,4.12412 7.8776,3.7558 0.14863,-0.0934 0.79037,0.23719 1.42611,0.73475 1.39255,1.09009 13.74175,1.28422 14.39559,0.22625 0.25366,-0.4104 0.80615,-0.53303 1.22777,-0.2725 0.4216,0.26063 1.22975,0.18438 1.79588,-0.16937 0.56613,-0.35366 1.49253,-0.74609 2.05866,-0.87206 2.50521,-0.55741 3.91144,-0.93578 3.91144,-1.05247 0,-0.27312 3.37444,-0.94175 4.71869,-0.93518 0.78366,0.003 1.64301,-0.3461 1.90968,-0.77757 0.26666,-0.43149 0.77704,-0.6039 1.13417,-0.38321 0.35713,0.22062 1.90639,0.0219 3.44281,-0.44344 4.79181,-1.44906 6.04253,-1.73337 7.51217,-1.70765 0.78367,0.0125 1.64302,-0.3281 1.90969,-0.75956 0.26666,-0.43147 0.82979,-0.57131 1.25141,-0.31063 0.4216,0.26063 1.22324,0.19156 1.78141,-0.15343 0.55816,-0.34494 1.5772,-0.7141 2.26451,-0.82028 0.68732,-0.10625 2.36135,-0.41403 3.72005,-0.68407 2.70363,-0.53737 5.06422,-0.9444 9.46981,-1.6329 1.58516,-0.24781 3.90115,-0.63562 5.14663,-0.86196 9.773,-1.77606 22.32243,-3.34156 32.73258,-4.08328 23.809,-1.69637 43.8969,-2.0429 59.28921,-1.02278 26.1146,1.73075 31.65509,2.21506 39.93785,3.49109 1.35872,0.20937 3.76734,0.56384 5.35249,0.78784 6.34998,0.89728 13.17228,1.94478 15.64578,2.40222 1.13224,0.20937 3.35558,0.60087 4.94077,0.86993 1.58515,0.26906 3.71486,0.67187 4.73267,0.89512 3.15018,0.69091 6.81596,1.39566 12.14826,2.33553 0.90581,0.15969 1.64693,0.38487 1.64693,0.5005 0,0.11562 0.74112,0.32187 1.64693,0.45837 0.90578,0.13657 2.57331,0.49456 3.70556,0.79569 1.13228,0.30125 2.69984,0.53628 3.48349,0.52259 0.78369,-0.0125 1.64303,0.32806 1.90971,0.75953 0.26657,0.4315 0.82978,0.57131 1.25141,0.31063 0.42159,-0.26063 1.22975,-0.18438 1.79587,0.16937 0.56612,0.35369 1.39987,0.72444 1.85278,0.8239 0.4529,0.0994 1.74987,0.4095 2.88211,0.68891 1.13228,0.27937 2.6145,0.64328 3.29387,0.80859 0.67934,0.16531 1.42047,0.38538 1.64691,0.48903 0.22656,0.10375 0.78227,0.27438 1.23518,0.37975 0.45291,0.10531 1.1014,0.28031 1.44106,0.38922 0.33969,0.10875 0.89553,0.27625 1.23522,0.372 0.33965,0.0956 1.1734,0.41562 1.85277,0.71093 0.67934,0.29532 2.16159,0.69894 3.29384,0.897 1.13225,0.19813 2.15131,0.434 2.26452,0.52425 0.11313,0.0903 0.57641,0.25687 1.02931,0.37 0.45291,0.11312 1.00875,0.29844 1.23522,0.41172 0.22656,0.11312 0.68962,0.28312 1.02931,0.37781 0.33969,0.0947 1.59056,0.57737 2.77971,1.07293 1.75159,0.72994 6.58474,2.24222 9.98395,3.12397 0.33966,0.0881 0.80287,0.25281 1.02931,0.36606 0.22656,0.11312 0.78231,0.29843 1.23518,0.41175 0.45291,0.11312 1.00875,0.29843 1.23522,0.41171 0.22656,0.11313 0.68962,0.26532 1.02931,0.33797 0.33969,0.0725 1.42337,0.58025 2.40815,1.12794 0.98481,0.54771 2.46706,1.10853 3.29387,1.24628 0.82681,0.13781 2.33703,0.70856 3.35605,1.26849 1.01903,0.55991 1.85278,0.77709 1.85278,0.48263 0,-0.29438 0.92641,0.0716 2.05868,0.81346 1.13225,0.74191 2.05866,1.13944 2.05866,0.88347 0,-0.25594 1.60634,0.47597 3.56971,1.62656 1.96334,1.15059 3.81611,1.84556 4.1173,1.54437 0.30125,-0.30125 0.54759,-0.11531 0.54759,0.41312 0,0.52838 0.27781,0.88582 0.6176,0.79425 0.33968,-0.0916 2.14658,0.63369 4.01533,1.61166 1.86878,0.97793 3.62893,1.54693 3.91143,1.2644 0.2825,-0.2825 0.51372,-0.0813 0.51372,0.447 0,0.52837 0.27781,0.88581 0.61759,0.79425 0.33965,-0.0916 2.14659,0.63368 4.01533,1.61165 1.86878,0.97793 3.6289,1.54693 3.91143,1.2644 0.2825,-0.2825 0.51372,-0.10531 0.51372,0.39372 0,0.49906 1.29693,1.37637 2.88209,1.94956 1.58518,0.57322 2.88212,1.36018 2.88212,1.74884 0,0.38865 0.37056,0.47762 0.82346,0.19781 0.45291,-0.28 0.82347,-0.15312 0.82347,0.28156 0,0.43475 1.66612,1.47566 3.70249,2.31309 2.03637,0.83747 3.70387,1.82243 3.70556,2.18884 0.002,0.3664 0.37365,0.43719 0.82656,0.15719 0.4529,-0.28 0.82346,-0.14063 0.82346,0.30968 0,0.45032 1.29694,1.28775 2.88212,1.86094 1.58515,0.57321 2.88212,1.36018 2.88212,1.74884 0,0.38865 0.33891,0.49718 0.75312,0.24125 0.41422,-0.25594 0.88413,-0.0725 1.04428,0.40796 0.16,0.48038 1.02553,1.01019 1.92309,1.17731 0.89759,0.16719 1.632,0.3606 1.632,0.42991 0,0.0694 0.68243,0.255 1.51649,0.41294 0.8341,0.15781 1.67288,0.44328 1.86397,0.63437 0.19125,0.19094 3.21424,0.25625 6.71811,0.14469 4.98599,-0.15875 7.3103,-0.67778 10.69382,-2.38765 z M 585.0691,318.00301 c 0.90581,-0.23813 1.73955,-0.50744 1.8528,-0.59869 0.11313,-0.0913 0.57641,-0.25844 1.02931,-0.37181 0.45291,-0.11313 0.9161,-0.28063 1.02935,-0.37178 0.11312,-0.0913 0.94024,-0.30281 1.83784,-0.46984 0.89756,-0.16719 1.76296,-0.69694 1.92312,-1.17731 0.16,-0.48038 0.63003,-0.66397 1.04424,-0.40797 0.41422,0.25593 0.75316,0.0731 0.75316,-0.4066 0,-0.47965 0.40772,-0.87206 0.90603,-0.87206 0.49831,0 2.59743,-1.66751 4.66471,-3.70558 2.06727,-2.03807 3.41971,-3.71125 3.0054,-3.71818 -0.41432,-0.007 -0.38272,-0.28485 0.0703,-0.6176 0.87959,-0.64621 3.91152,-6.28584 4.23721,-7.88151 0.1075,-0.52695 0.43868,-1.88448 0.73581,-3.01674 0.80643,-3.07296 0.89887,-14.91303 0.12031,-15.39429 -0.37203,-0.22994 -0.48209,-0.92454 -0.24437,-1.54359 0.23749,-0.61904 0.0716,-1.34828 -0.36903,-1.62052 -0.44054,-0.27225 -0.58775,-0.83996 -0.32716,-1.26157 0.26062,-0.4216 0.0594,-0.76656 -0.44691,-0.76656 -0.50637,0 -0.71012,-0.34068 -0.45278,-0.75707 0.2575,-0.41639 -0.0912,-1.31632 -0.77484,-1.99983 -0.68353,-0.68352 -1.24915,-1.54716 -1.257,-1.91918 -0.006,-0.37203 -0.93421,-1.54906 -2.05865,-2.61563 -1.12443,-1.06657 -2.04443,-2.27089 -2.04443,-2.67625 0,-0.40537 -0.39906,-0.73703 -0.88678,-0.73703 -0.48775,0 -1.99849,-1.11168 -3.35721,-2.47039 -1.35872,-1.3587 -2.99771,-2.47038 -3.64221,-2.47038 -0.64453,0 -1.17187,-0.3635 -1.17187,-0.80777 0,-0.44428 -0.92638,-1.04028 -2.05865,-1.32447 -1.13225,-0.28418 -2.05866,-0.86894 -2.05866,-1.29947 0,-0.43053 -0.37056,-0.55377 -0.82346,-0.27388 -0.45288,0.27991 -0.82344,0.14716 -0.82344,-0.29503 0,-0.44217 -1.66753,-1.44077 -3.70558,-2.21912 -2.03806,-0.77834 -3.70559,-1.75726 -3.70559,-2.17535 0,-0.41811 -0.37056,-0.53118 -0.82344,-0.25125 -0.4529,0.2799 -0.82346,0.0946 -0.82346,-0.41173 0,-0.50636 -0.37056,-0.69165 -0.82347,-0.41173 -0.4529,0.2799 -0.82347,0.0946 -0.82347,-0.41173 0,-0.50637 -0.37056,-0.69165 -0.82346,-0.41173 -0.45291,0.2799 -0.82347,0.0946 -0.82347,-0.41173 0,-0.50637 -0.37053,-0.69165 -0.82344,-0.41174 -0.4529,0.27991 -0.82346,0.0946 -0.82346,-0.41173 0,-0.50636 -0.37056,-0.69164 -0.82347,-0.41173 -0.4529,0.27991 -0.82347,0.0946 -0.82347,-0.41173 0,-0.50636 -0.34068,-0.7101 -0.75706,-0.45276 -0.4164,0.25734 -1.29868,-0.0737 -1.96062,-0.73565 -0.66197,-0.66195 -1.43296,-0.97415 -1.71331,-0.69378 -0.28031,0.28037 -0.50978,0.0774 -0.50978,-0.45094 0,-0.52839 -0.27781,-0.88581 -0.61759,-0.79426 -0.33965,0.0916 -2.14659,-0.63369 -4.01533,-1.61164 -1.86878,-0.97795 -3.6289,-1.54693 -3.91143,-1.2644 -0.2825,0.28253 -0.51372,0.0814 -0.51372,-0.44701 0,-0.52839 -0.27781,-0.88452 -0.61759,-0.79141 -0.33966,0.0931 -1.77494,-0.44793 -3.18943,-1.20234 -1.41453,-0.75441 -2.80412,-1.1394 -3.088,-0.85553 -0.28375,0.28388 -0.51612,0.124 -0.51612,-0.3553 0,-0.71042 -1.72465,-1.49483 -4.94077,-2.2472 -0.22656,-0.053 -1.24547,-0.55943 -2.26453,-1.12544 -1.01903,-0.56602 -1.85277,-0.82226 -1.85277,-0.56943 0,0.25284 -0.92641,-0.14732 -2.05865,-0.8892 -1.13225,-0.74188 -2.05866,-1.11244 -2.05866,-0.82346 0,0.28897 -0.9264,-0.0816 -2.05865,-0.82346 -1.13225,-0.74189 -2.05865,-1.07562 -2.05865,-0.74162 0,0.33399 -0.61278,0.0987 -1.36175,-0.52289 -0.74896,-0.62158 -1.58271,-1.08191 -1.85277,-1.02294 -0.27,0.059 -1.41744,-0.25575 -2.54972,-0.69936 -1.13224,-0.44362 -2.61449,-0.92671 -3.29383,-1.07353 -0.67935,-0.14685 -1.32784,-0.34164 -1.44106,-0.43291 -0.11313,-0.0913 -0.57641,-0.25856 -1.02931,-0.3718 -0.45291,-0.11321 -1.00875,-0.29849 -1.23522,-0.41173 -0.22656,-0.11321 -0.78228,-0.2985 -1.23518,-0.41173 -0.45291,-0.11321 -1.00875,-0.2985 -1.23519,-0.41173 -0.22656,-0.11321 -0.78228,-0.2985 -1.23518,-0.41173 -0.45291,-0.11322 -1.00875,-0.2985 -1.23522,-0.41173 -0.22656,-0.11322 -0.78228,-0.2985 -1.23518,-0.41173 -0.45291,-0.11322 -1.00875,-0.2985 -1.23519,-0.41173 -0.22656,-0.11322 -0.78228,-0.2985 -1.23518,-0.41173 -0.45291,-0.11322 -1.00875,-0.2985 -1.23519,-0.41173 -0.22656,-0.11322 -0.78231,-0.2985 -1.23521,-0.41173 -0.45291,-0.11322 -1.00872,-0.2985 -1.23519,-0.41173 -0.22656,-0.11322 -0.78228,-0.2985 -1.23518,-0.41173 -0.45291,-0.11322 -1.00875,-0.2985 -1.23519,-0.41173 -0.22656,-0.11322 -0.78231,-0.2985 -1.23521,-0.41173 -0.45288,-0.11322 -1.00872,-0.2985 -1.23519,-0.41173 -0.22656,-0.11322 -0.78228,-0.2985 -1.23518,-0.41173 -0.45291,-0.11322 -1.10138,-0.30863 -1.44106,-0.43422 -0.33969,-0.1256 -0.98816,-0.31446 -1.44106,-0.41968 -0.45291,-0.10522 -1.10137,-0.28038 -1.44106,-0.38924 -0.33966,-0.10885 -0.98816,-0.29056 -1.44106,-0.40379 -0.45291,-0.11321 -0.91609,-0.28053 -1.02931,-0.3718 -0.11313,-0.0913 -0.85434,-0.32286 -1.64693,-0.51466 l -2.88212,-0.69746 c -0.79256,-0.19181 -1.44106,-0.40543 -1.44106,-0.47473 0,-0.0693 -0.55581,-0.26128 -1.23519,-0.42659 -0.67934,-0.16535 -2.16159,-0.52919 -3.29383,-0.8086 -1.13225,-0.27941 -2.6145,-0.64327 -3.29384,-0.8086 -0.67937,-0.16531 -1.23522,-0.35729 -1.23522,-0.42659 0,-0.0693 -0.55581,-0.26128 -1.23518,-0.4266 -1.34,-0.32609 -3.98015,-0.98017 -6.58767,-1.63206 l -3.29387,-0.82346 c -0.90578,-0.22643 -2.48065,-0.63022 -3.49968,-0.89727 -1.01906,-0.26707 -2.59393,-0.60674 -3.49971,-0.75485 -0.90581,-0.14809 -1.64694,-0.34745 -1.64694,-0.443 0,-0.0955 -0.83374,-0.31172 -1.85277,-0.48035 l -3.70559,-0.61328 c -1.01903,-0.16866 -1.85277,-0.40121 -1.85277,-0.51682 0,-0.11559 -0.74113,-0.34082 -1.64694,-0.50048 -3.61421,-0.63704 -9.63879,-1.81854 -12.35191,-2.42236 -0.90581,-0.2016 -2.57334,-0.53431 -3.70558,-0.73937 -4.34943,-0.78772 -7.90933,-1.40396 -10.08739,-1.7462 -1.24549,-0.19569 -3.28355,-0.5202 -4.52905,-0.72111 -1.24547,-0.2009 -3.74674,-0.58195 -5.55836,-0.84676 -1.81162,-0.26481 -4.22024,-0.64211 -5.35249,-0.83845 -1.13225,-0.19634 -3.91143,-0.57775 -6.17596,-0.84757 -2.26452,-0.26985 -5.22898,-0.63523 -6.5877,-0.81201 -7.61008,-0.99012 -9.49751,-1.2091 -13.99884,-1.62418 -12.74369,-1.17514 -22.01245,-1.79022 -36.64401,-2.43172 -3.84968,-0.16878 -13.85472,-0.61497 -22.23345,-0.99151 -14.89765,-0.66952 -20.58457,-0.65633 -44.05517,0.10219 -18.74704,0.60586 -43.29046,2.40046 -55.99535,4.09434 -1.35871,0.18116 -4.50845,0.56358 -6.99942,0.84983 -2.49097,0.28625 -5.64071,0.68267 -6.99942,0.88091 -1.35871,0.19825 -3.76733,0.54371 -5.3525,0.76771 -5.3648,0.7581 -10.74998,1.62832 -14.82229,2.39523 -1.13226,0.21325 -3.35561,0.59868 -4.94077,0.85655 -3.56233,0.57952 -5.57906,0.99411 -8.23461,1.69286 -2.01915,0.53129 -4.54701,1.04134 -7.82288,1.57844 -0.90581,0.1485 -1.64692,0.36461 -1.64692,0.48021 0,0.1156 -0.74112,0.32188 -1.64693,0.45838 -0.9058,0.1365 -2.57331,0.49457 -3.70557,0.7957 -1.13226,0.30113 -2.69983,0.53629 -3.4835,0.52258 -0.78366,-0.0137 -1.62928,0.30587 -1.87915,0.71016 -0.24988,0.4043 -0.96081,0.54074 -1.57985,0.30319 -0.61904,-0.23753 -1.37389,-0.03 -1.67745,0.46113 -0.30356,0.49117 -0.91311,0.6698 -1.35455,0.39697 -0.44145,-0.27284 -1.34225,-0.0482 -2.00176,0.49913 -0.65951,0.54735 -1.19912,0.75956 -1.19912,0.47157 0,-0.28797 -1.29695,0.0184 -2.88211,0.68061 -1.58517,0.66233 -2.88212,1.01599 -2.88212,0.78592 0,-0.23006 -0.4632,-0.12925 -1.02932,0.22406 -0.56613,0.35331 -1.75436,0.75509 -2.64051,0.89286 -0.88615,0.13775 -1.8995,0.70432 -2.25191,1.25901 -0.3524,0.55469 -0.6464,0.72438 -0.65334,0.37706 -0.0162,-0.81051 -8.24722,3.33698 -8.24722,4.15566 0,0.33787 -0.83375,0.98011 -1.85278,1.42718 -1.01904,0.44707 -2.21858,1.64662 -2.66565,2.66565 -0.44708,1.01903 -1.08931,1.85279 -1.42719,1.85279 -0.33788,0 -1.5532,1.85279 -2.70072,4.1173 -1.14752,2.26452 -1.873,4.11731 -1.61219,4.11731 0.26081,0 0.18484,0.46319 -0.16885,1.02932 -1.0043,1.60761 -1.17516,3.02645 -1.21473,10.0874 -0.0316,5.63428 0.3209,9.27338 0.97704,10.0874 0.0913,0.11322 0.25856,0.57642 0.3718,1.02933 0.11322,0.4529 0.28053,0.9161 0.3718,1.02932 0.0913,0.11322 0.30269,0.94026 0.46983,1.83785 0.16712,0.89758 0.69461,1.76221 1.17218,1.9214 0.47756,0.15919 0.8683,0.81414 0.8683,1.45544 0,1.63567 8.55709,10.22521 10.18658,10.22521 0.73803,0 1.34188,0.39243 1.34188,0.87206 0,0.47964 0.37056,0.64304 0.82346,0.36313 0.45291,-0.2799 0.82346,-0.1165 0.82346,0.36313 0,0.47964 0.27791,0.82818 0.6176,0.77455 0.33967,-0.0536 0.89551,-0.007 1.23519,0.10294 0.33968,0.11025 0.98815,0.29309 1.44106,0.40631 0.4529,0.11322 0.9161,0.27772 1.02932,0.36553 0.65534,0.50828 5.81845,1.01584 10.0874,0.99165 4.74048,-0.0269 6.59885,-0.25438 11.11673,-1.36095 1.13225,-0.27735 2.61448,-0.6395 3.29384,-0.80483 0.67935,-0.16531 1.42047,-0.37282 1.64692,-0.46111 0.22647,-0.0883 0.72866,-0.10362 1.116,-0.0341 0.38735,0.0695 1.22111,-0.30253 1.85279,-0.82678 0.63169,-0.52425 1.14852,-0.67716 1.14852,-0.33979 0,0.33736 0.49729,0.20065 1.10509,-0.30375 0.6078,-0.50443 1.32426,-0.69798 1.59214,-0.4301 0.26787,0.26787 0.97489,0.18243 1.57115,-0.18985 1.042,-0.6506 1.55434,-0.79917 5.20142,-1.50825 0.90581,-0.17609 2.57332,-0.55468 3.70557,-0.84127 1.13226,-0.28659 2.79977,-0.66705 3.70558,-0.84547 0.90581,-0.17844 2.57332,-0.50969 3.70558,-0.73615 4.35598,-0.87119 6.27391,-1.23598 9.05807,-1.72283 1.58516,-0.27719 3.62323,-0.64775 4.52903,-0.82346 5.51638,-1.07009 8.99478,-1.65811 14.41057,-2.43606 1.58516,-0.22772 4.36434,-0.62728 6.17596,-0.88794 6.33974,-0.91217 7.44484,-1.0647 11.94018,-1.64799 8.02922,-1.04183 15.22579,-1.71325 27.17422,-2.53528 11.54452,-0.79424 70.42694,-0.76919 82.34613,0.035 21.83952,1.47358 38.7406,3.09489 51.46629,4.93715 1.35872,0.19669 3.95262,0.57107 5.76424,0.83195 1.81162,0.26087 4.22024,0.6374 5.35249,0.83673 3.53802,0.62285 6.87717,1.17458 10.29329,1.70079 3.92133,0.60403 6.2823,1.0225 9.06026,1.60587 l 4.1129,0.8637 c 2.59046,0.54399 6.10051,1.20807 8.23682,1.55832 0.90581,0.1485 1.6469,0.36461 1.6469,0.48021 0,0.20716 1.30688,0.49195 5.35252,1.16645 1.13225,0.18878 2.05865,0.4214 2.05865,0.51695 0,0.0955 0.7411,0.2854 1.64691,0.4219 0.90581,0.1365 2.48068,0.45978 3.49971,0.71838 3.03877,0.77113 5.50608,1.37842 6.38183,1.57079 0.4529,0.0995 1.31131,0.48549 1.90759,0.85778 0.59625,0.37229 1.30328,0.45772 1.57115,0.18985 0.26781,-0.26788 0.99328,-0.0669 1.61203,0.44661 0.61875,0.51352 1.35987,0.69879 1.64693,0.41174 0.28719,-0.28706 1.01922,-0.10922 1.627,0.39521 0.60781,0.50443 1.10509,0.64112 1.10509,0.30375 0,-0.33737 0.51684,-0.18447 1.14853,0.33979 0.63168,0.52425 1.46543,0.8963 1.85277,0.82678 0.38735,-0.0695 0.88957,-0.0542 1.11603,0.0341 0.22657,0.0883 1.06019,0.31745 1.85278,0.50925 l 2.88212,0.69745 c 0.79256,0.19182 1.53368,0.37709 1.6469,0.41174 0.11313,0.0346 0.33422,-0.0297 0.49106,-0.14288 0.15688,-0.11322 0.89794,0.30272 1.64691,0.92429 0.74896,0.62159 1.36174,0.85413 1.36174,0.51677 0,-0.33737 0.46322,-0.24025 1.02934,0.21581 1.07938,0.86952 6.13827,2.16167 6.65327,1.69939 0.16438,-0.14756 0.91169,0.24028 1.66065,0.86187 0.74897,0.62159 1.36175,0.85413 1.36175,0.51677 0,-0.33736 0.55584,-0.15209 1.23518,0.41173 0.67938,0.56382 1.23519,0.7491 1.23519,0.41173 0,-0.33736 0.46322,-0.24575 1.02934,0.2036 0.85956,0.68224 6.03071,2.66543 8.23461,3.15807 0.33968,0.0759 0.80287,0.23068 1.02934,0.34392 0.22656,0.11322 0.68962,0.26531 1.02931,0.33798 0.33969,0.0727 1.45134,0.59521 2.47037,1.16123 1.01906,0.56601 1.85281,0.82226 1.85281,0.56943 0,-0.25285 0.92637,0.14731 2.05865,0.8892 1.13225,0.74188 2.05865,1.11243 2.05865,0.82346 0,-0.28897 0.9264,0.0816 2.05865,0.82346 1.13225,0.74188 2.05865,1.11406 2.05865,0.82705 0,-0.287 3.82924,1.52302 8.50942,4.02229 4.68018,2.49926 8.75629,4.29721 9.05808,3.99545 0.30187,-0.30175 0.54865,-0.0945 0.54865,0.46064 0,0.55512 0.37056,0.78029 0.82347,0.50038 0.4529,-0.27991 0.82343,-0.0946 0.82343,0.41173 0,0.50636 0.37056,0.69164 0.82347,0.41173 0.45291,-0.27991 0.82347,-0.0946 0.82347,0.41173 0,0.50636 0.37056,0.69164 0.82346,0.41173 0.45291,-0.27991 0.82347,-0.1165 0.82347,0.36313 0,0.47963 0.295,0.77942 0.65562,0.66619 0.81681,-0.2565 16.94647,7.79808 17.325,8.65148 0.15187,0.3425 0.61509,0.41325 1.02931,0.15719 0.41421,-0.25594 0.75312,-0.0512 0.75312,0.45519 0,0.50637 0.37056,0.69165 0.82347,0.41175 0.4529,-0.28 0.82346,-0.0947 0.82346,0.41171 0,0.50638 0.37057,0.69166 0.82347,0.41175 0.45291,-0.28 0.82347,-0.0547 0.82347,0.50038 0,0.55512 0.24375,0.76546 0.54181,0.46747 0.29812,-0.29813 1.03912,-0.12907 1.64693,0.37531 0.60781,0.50443 1.10509,0.64112 1.10509,0.30375 0,-0.33735 0.55585,-0.15219 1.23519,0.41175 0.67934,0.56381 1.23518,0.77606 1.23518,0.47162 0,-0.30438 0.56269,-0.23844 1.25041,0.14625 1.30649,0.73115 11.13407,0.68956 13.98362,-0.0591 z"
     id="path1" />
  <path
     style="fill:#1ed760;fill-opacity:1;stroke:#1ed760;stroke-width:0.823461;stroke-opacity:1"
     d="m 337.61906,703.56299 c -13.56763,-0.885 -33.17551,-2.96468 -42.40826,-4.49796 -59.36386,-9.85864 -118.405,-37.16586 -166.22021,-76.8788 C 116.70965,611.98629 91.283905,586.18097 81.871876,574.36412 38.038915,519.33149 11.957282,453.42823 5.7765871,382.08596 5.3449799,377.104 5.1149757,361.5406 5.2654666,347.50057 5.5584997,320.16216 6.7988588,307.0957 11.167198,285.32927 31.001853,186.49773 93.360181,100.28052 181.53902,49.771564 220.9189,27.214717 266.72689,12.436907 314.15039,6.9906825 333.88663,4.7241291 381.92761,5.1285066 400.72651,7.7194236 454.58426,15.142266 503.86309,33.534112 547.1899,62.38251 c 10.15788,6.763451 26.36672,18.680346 30.10553,22.133885 1.15931,1.07086 3.93849,3.41358 6.17595,5.206048 5.31358,4.256784 29.5185,28.553087 37.36126,37.502297 32.65671,37.2639 59.77959,90.4407 72.87118,142.8705 7.62245,30.52662 10.36935,55.66459 9.83554,90.00905 -1.22375,78.7346 -27.43703,152.24353 -75.82827,212.64221 -9.52685,11.89075 -36.7317,39.70232 -48.4062,49.4857 -52.03529,43.60625 -114.48634,70.74572 -181.57319,78.90657 -12.46113,1.51587 -41.45937,3.48159 -47.34902,3.20968 -1.35871,-0.0628 -7.10232,-0.41618 -12.76362,-0.78546 z M 504.1905,516.43491 c 7.18607,-3.01137 12.11959,-10.47048 12.11959,-18.3239 0,-13.22819 -4.07714,-17.06706 -34.69733,-32.66933 -41.1755,-20.98068 -91.45698,-35.1653 -139.46468,-39.34354 -14.21838,-1.23747 -66.91566,-1.29219 -81.93438,-0.085 -30.83037,2.47799 -79.74819,10.41688 -93.19801,15.12518 -9.06531,3.17343 -14.6904,10.83195 -14.65731,19.95577 0.0219,6.03346 1.90939,10.5631 6.18206,14.83575 6.35633,6.35633 12.51489,6.82339 33.76079,2.56031 79.41075,-15.93409 146.57276,-15.52016 209.50987,1.29121 23.31329,6.2273 49.00317,16.72709 72.08812,29.46337 7.24789,3.99878 13.73384,7.47302 14.41322,7.72055 2.49793,0.91015 13.30172,0.54931 15.87806,-0.53031 z m 41.65153,-93.49948 c 11.36928,-5.89724 16.68771,-19.11193 12.86819,-31.97368 -1.539,-5.18233 -7.16796,-11.66063 -13.93597,-16.03871 -5.56146,-3.59762 -45.07159,-23.19689 -55.63838,-27.59982 -34.26726,-14.27834 -80.22872,-26.35097 -119.81357,-31.47121 -25.02373,-3.2368 -42.00894,-4.17199 -75.77337,-4.17199 -37.75057,0 -53.11106,1.0934 -80.70408,5.74468 -28.41174,4.78927 -59.43146,13.02875 -64.54582,17.14468 -7.60647,6.12151 -11.36316,14.60009 -10.51124,23.72304 0.89326,9.56579 6.2857,17.18186 15.12667,21.36429 7.35971,3.48171 12.22416,3.1404 34.31276,-2.40759 57.98872,-14.56503 114.95708,-17.22652 176.68328,-8.25448 54.43356,7.91205 103.29902,23.73029 145.64183,47.1458 7.37261,4.07706 14.41043,7.80164 15.63962,8.27686 1.22918,0.47522 5.56989,0.75553 9.64604,0.62287 5.76158,-0.1875 8.21082,-0.65593 11.00404,-2.10474 z m 41.75662,-106.03086 c 8.09302,-2.71846 14.59266,-8.62796 18.38477,-16.71543 1.91694,-4.08829 2.14128,-5.5585 2.14191,-14.03641 6.2e-4,-8.72254 -0.17657,-9.80591 -2.24541,-13.72925 -4.9037,-9.29926 -12.96878,-14.97021 -39.582,-27.83203 -62.5578,-30.23339 -136.08582,-47.75842 -219.62079,-52.34552 -71.48149,-3.9252 -137.00762,1.36783 -193.84758,15.6585 -22.56759,5.67394 -30.71831,10.51169 -35.73025,21.20722 -1.99676,4.26109 -2.22648,5.68585 -2.22648,13.80937 0,8.08754 0.23472,9.55879 2.19075,13.73134 5.03936,10.74991 14.61194,17.1805 26.50314,17.80407 5.95851,0.31246 8.33826,-0.0689 21.12551,-3.38534 25.80015,-6.69142 50.63809,-11.05088 81.11091,-14.23625 16.06305,-1.6791 74.35806,-2.40458 94.69804,-1.17852 51.47539,3.10284 95.40592,10.53845 138.5471,23.45027 24.24067,7.25502 40.75622,14.11053 73.0824,30.336 7.24645,3.63721 14.65759,7.08601 16.46921,7.66404 4.72999,1.50913 14.2045,1.40834 18.99877,-0.20218 z"
     id="path2" />
</svg>
