<?xml version="1.0" encoding="UTF-8" standalone="no"?>
<svg
   width="2.3699999in"
   height="2.3699999in"
   viewBox="0 0 237 237"
   version="1.1"
   id="svg1"
   sodipodi:docname="icongreen"
   xmlns:inkscape="http://www.inkscape.org/namespaces/inkscape"
   xmlns:sodipodi="http://sodipodi.sourceforge.net/DTD/sodipodi-0.dtd"
   xmlns="http://www.w3.org/2000/svg"
   xmlns:svg="http://www.w3.org/2000/svg">
  <defs
     id="defs1" />
  <sodipodi:namedview
     id="namedview1"
     pagecolor="#ffffff"
     bordercolor="#000000"
     borderopacity="0.25"
     inkscape:showpageshadow="2"
     inkscape:pageopacity="0.0"
     inkscape:pagecheckerboard="0"
     inkscape:deskcolor="#d1d1d1"
     inkscape:document-units="in"
     showgrid="false" />
  <path
     id="Selección"
     fill="none"
     stroke="black"
     stroke-width="1"
     d="m 108,3.21 c 0,0 14,0 14,0 13.01,-0.05 27.95,3.37 40,8.19 12.34,4.94 24.09,11.85 34,20.77 46.73,42.06 52.04,112.86 13,161.83 -8.14,10.21 -18.72,19.39 -30,25.99 -14.35,8.4 -28.46,13.66 -45,15.72 C 97.81,240.22 61.13,229.06 35.04,202.96 -11.45,156.47 -9.97,75.76 40,32.29 61.54,13.55 80.46,7.42 108,3.21 Z M 82,66.14 c -9.12,1.46 -29.45,3.27 -37,7.3 -7.32,3.9 -9.33,12.72 -1.9,17.82 4.98,3.42 12.51,0.35 17.9,-0.84 12.17,-2.68 24.62,-3.49 37,-4.33 6.76,-0.46 8.48,0.63 14,0.87 17.86,0.78 35,3.25 52,9.04 0,0 27,11.38 27,11.38 9.63,1.42 17.23,-11.32 5.96,-19.28 C 189.45,82.8 173.07,76.9 164,74.29 140.76,67.62 123.97,66 100,66.14 Z m 2,40.14 c 0,0 -27,4.6 -27,4.6 -4.47,1.21 -9.43,2.98 -10.53,8.12 -1.22,5.7 4.08,10.1 9.53,9.66 4.23,-0.34 20.67,-5.63 37,-5.66 17.72,-0.03 27.58,0.52 45,4.87 11.09,2.77 17.77,5.23 28,10.38 4.36,2.19 9.92,6.06 14.98,4.15 4.97,-1.88 6.35,-8.1 3.42,-12.3 -3.2,-4.6 -15.05,-9.55 -20.4,-11.82 -23.43,-9.91 -54.68,-14.35 -80,-12 z m 1,38 c 0,0 -25,3.74 -25,3.74 -3.58,0.8 -7.46,1.96 -8.44,6.02 -1.52,6.32 4.47,8.23 9.44,7.52 23.8,-3.4 40.61,-7.01 65,-1.9 8.97,1.88 17.74,4.6 26,8.6 3.96,1.92 10.59,6.4 14.91,5.29 4.59,-1.18 6.12,-6.23 2.66,-10.34 -3.41,-4.05 -13.51,-8.26 -18.57,-10.35 -19.45,-8.02 -45.12,-10.52 -66,-8.58 z"
     style="fill:#3d3d3c;fill-opacity:1;stroke:#3d3d3c;stroke-opacity:1" />
</svg>
