<?xml version="1.0" encoding="UTF-8" standalone="no"?>
<svg
   width="7.8700004in"
   height="2.3699999in"
   viewBox="0 0 787.00005 237"
   version="1.1"
   id="svg1"
   sodipodi:docname="Spotify"
   inkscape:export-filename="..\..\..\..\projects\jammming\src\styles\Spotify.svg"
   inkscape:export-xdpi="96"
   inkscape:export-ydpi="96"
   xmlns:inkscape="http://www.inkscape.org/namespaces/inkscape"
   xmlns:sodipodi="http://sodipodi.sourceforge.net/DTD/sodipodi-0.dtd"
   xmlns="http://www.w3.org/2000/svg"
   xmlns:svg="http://www.w3.org/2000/svg">
  <defs
     id="defs1" />
  <sodipodi:namedview
     id="namedview1"
     pagecolor="#ffffff"
     bordercolor="#000000"
     borderopacity="0.25"
     inkscape:showpageshadow="2"
     inkscape:pageopacity="0.0"
     inkscape:pagecheckerboard="0"
     inkscape:deskcolor="#d1d1d1"
     inkscape:document-units="in"
     showgrid="false" />
  <path
     id="Selección"
     fill="none"
     stroke="black"
     stroke-width="1"
     d="m 114.09686,2.1131359 c 0,0 12,0 12,0 11.87,-0.15 27.89,3.03 39,7.21 12.43,4.6800001 24.98,12.1600001 35,20.8700001 50.84,44.21 53.92,124.120004 6,171.710004 -9.36,9.29 -21.85,18.18 -34,23.42 -15.69,6.76 -32.86,10.77 -50,10.58 -13.39,-0.16 -30.589996,-3.58 -42.999996,-8.6 -13.5,-5.47 -27.53,-14.33 -37.96,-24.49 -46.2099999,-44.99 -45.6599999,-119.520004 -1.95,-165.910004 15.07,-15.99 38.39,-28.2200001 59.91,-32.5500001 z m 493,54.5300001 c 5.1,-1.23 10.7,-1.16 14.78,2.65 5.94,5.57 5.3,17.88 -3.78,21.6 -16.43,6.74 -27.3,-15.65 -11,-24.25 z m 33,34.26 c 0.09,-10.23 1.55,-21.13 11,-27.01 6.85,-4.26 15.36,-4.07 23,-2.99 2.31,0.33 6.49,0.77 8.01,2.72 1.38,1.78 1.03,7.92 0.99,10.28 -0.22,11.68 -7.15,4.05 -14,5.74 -6.02,1.48 -6.86,5.94 -7,11.26 0,0 23,0 23,0 0,0 8.19,1.6 8.19,1.6 0,0 6.21,14.400004 6.21,14.400004 0,0 13.6,37 13.6,37 0,0 2,0 2,0 0,0 8.66,-26 8.66,-26 0,0 6.29,-18.000004 6.29,-18.000004 0.82,-2.24 1.77,-5.82 3.56,-7.4 1.83,-1.63 4.19,-1.55 6.49,-1.6 0,0 6,0 6,0 2.11,0 6.58,-0.38 7.89,1.6 1.27,1.92 -0.36,5.48 -1.08,7.4 0,0 -6.86,18.000004 -6.86,18.000004 0,0 -17.14,44 -17.14,44 -3.2,8.27 -7.01,20.2 -12.49,26.96 -7.06,8.72 -16.98,9.57 -27.32,8.04 -2.97,-0.45 -8.31,-1.65 -10.7,-3.41 -4.06,-3 0.92,-14.44 4.33,-16.55 3.77,-2.35 14.89,6.59 19.01,-4.06 1.39,-3.59 -2.76,-11.35 -4.24,-14.98 0,0 -13.41,-32 -13.41,-32 -1.1,-2.66 -5.1,-12.92 -6.69,-14.4 -2.57,-2.42 -11.66,-1.6 -15.3,-1.6 0,0 0,63 0,63 0,0 -22,0 -22,0 0,0 0,-63 0,-63 0,0 -10,0 -10,0 0,-3.48 -0.92,-15.990004 1.6,-17.980004 1.67,-1.32 6.26,-1.02 8.4,-1.02 z m -552.999996,-25.86 c -9.43,1.5 -30.33,3.24 -37.96,7.94 -8.64,5.34 -5.9,16.4 1.96,18.49 3.97,1.05 9.99,-1 14,-1.92 0,0 21,-3.53 21,-3.53 0,0 10,0 10,0 0,0 11.999996,-1.08 11.999996,-1.08 0,0 8,0.96 8,0.96 0,0 9,0 9,0 0,0 22,3.2 22,3.2 11.24,2.23 22.55,5.26 33,10.03 4.84,2.210004 14.12,7.940004 19,7.150004 5.32,-0.86 9.51,-5.93 8.57,-11.380004 -1.58,-9.12 -18.78,-14.85 -26.57,-17.81 -24.93,-9.48 -49.57,-12.19 -76,-12.05 z m 222.999996,-0.71 c 13.1,-1.62 31.5,2.6 41.87,10.93 5.46,4.39 0.43,9.31 -2.73,13.64 -1.24,1.69 -3.13,4.71 -5.32,5.13 -2.49,0.47 -7.47,-3.11 -9.82,-4.35 -5.08,-2.69 -13.18,-5.94 -19,-5.57 -6.15,0.39 -16.31,5.12 -14.02,12.79 2.34,7.830004 16.06,10.610004 23.02,12.370004 17.46,4.43 33.91,10.77 34,31.63 0.03,6.01 -0.01,9.32 -2.47,15 -8.56,19.79 -36.48,21.66 -54.53,16.57 -7.39,-2.08 -13.66,-4.97 -20,-9.32 -1.99,-1.36 -5.71,-3.8 -6.1,-6.34 -0.58,-3.76 8.33,-14.15 12.11,-14.32 3.16,-0.15 8.98,4.8 11.99,6.54 5.72,3.3 13.35,5.84 20,5.84 6.91,0 18.4,-4.16 16.53,-12.97 -1.91,-9.01 -17.09,-11.12 -24.53,-13.15 -7.89,-2.16 -18.79,-5.73 -24.82,-11.32 -8.63,-8 -9.92,-23.020004 -5.7,-33.530004 2.16,-5.38 5.71,-9.69 10.52,-12.9 6.23,-4.16 11.78,-5.49 19,-6.67 z m 241,5.57 c 0,0 22,0 22,0 0,0 0,21 0,21 3.68,0 17.96,-0.95 19.98,1.6 1.67,2.12 1.02,14.140004 1.02,17.400004 0,0 -21,0 -21,0 0,0 0,34 0,34 0.07,5.19 0.95,9.7 7,10.69 3.73,0.6 9.28,-1.71 12.99,-2.69 1.04,3.63 2.05,14.42 0,17.61 -1.71,2.63 -6.1,3.74 -8.99,4.37 -8.83,1.95 -21.13,1.11 -27.47,-6.16 -4.88,-5.6 -5.52,-14.7 -5.53,-21.82 0,0 0,-36 0,-36 0,0 -10,0 -10,0 0,-3.48 -0.92,-15.990004 1.6,-17.980004 1.67,-1.32 6.26,-1.02 8.4,-1.02 z m -165,30 c 9.42,-8.57 14.58,-10.14 27,-10 47.37,0.56 49.32,83.840004 -1,84.990004 -11.2,0.25 -17.73,-2.47 -26,-9.99 0,0 0,32 0,32 0,0 -22,0 -22,0 0,0 0,-81 0,-81 0,0 0,-18.000004 0,-18.000004 0.04,-1.95 -0.1,-4.63 1.6,-5.98 1.59,-1.25 5.41,-1.02 7.4,-1.02 12.45,-0.02 12.96,-0.79 13,9 z m 102,-9.77 c 4.31,-0.36 8.65,-0.28 13,0 31.04,0.14 49.09,35.020004 35.62,61.770004 -8.39,16.69 -23.79,23.2 -41.62,23 -6.15,-0.08 -11.42,-1.13 -17,-3.78 -11.99,-5.71 -21.72,-16.79 -23.85,-30.22 0,0 0,-12 0,-12 -0.05,-7.79 2.81,-15.74 7.46,-22 6.57,-8.850004 15.76,-14.170004 26.39,-16.770004 z m 113,82.770004 c 0,0 0,-62 0,-62 0,-3.58 -0.93,-16.970004 1.6,-18.980004 1.48,-1.17 4.58,-1.01 6.4,-1.02 0,0 7,0 7,0 8.54,0.16 7,2.36 7,19.000004 0,0 0,63 0,63 z m -511.999996,-67.72 c 0,0 -27,4.62 -27,4.62 -4.53,1.16 -9.29,2.92 -10.34,8.1 -1.15,5.72 3.8,10.11 9.34,9.66 4.23,-0.34 20.67,-5.63 37,-5.66 17.719996,-0.03 27.579996,0.52 44.999996,4.87 11.09,2.77 17.77,5.23 28,10.38 4.37,2.2 9.91,6.06 14.98,4.15 5.23,-1.97 6.9,-7.83 3.51,-12.3 -3.59,-4.71 -14.88,-9.44 -20.49,-11.82 -23.45,-9.92 -54.65,-14.35 -79.999996,-12 z m 313.999996,3.93 c -25.34,6.2 -21.78,44.01 2,46.45 3.07,0.32 6.17,-0.44 9,-1.59 20.14,-8.16 16.1,-43.43 -6,-44.86 -1.77,-0.24 -3.26,-0.07 -5,0 z m 91,0.11 c -6.38,1.45 -11.4,3.93 -15.01,9.68 -8.99,14.33 -0.88,35.66 17.01,36.9 25.46,1.78 32.51,-36.75 8,-45.51 -3.84,-1.38 -6.01,-1.47 -10,-1.07 z m -403.999996,33.96 c 0,0 -25,3.85 -25,3.85 -3.37,0.88 -7.09,2.11 -8.16,5.89 -2.09,7.4 6.37,7.99 11.16,7.23 22.1,-3.55 40.619996,-6.28 62.999996,-1.59 8.97,1.88 17.74,4.6 26,8.6 4.03,1.95 10.55,6.4 14.96,5.29 5.11,-1.28 5.95,-6.58 2.73,-10.37 -3.56,-4.18 -13.46,-8.16 -18.69,-10.32 -19.67,-8.11 -44.89,-10.54 -65.999996,-8.58 z"
     style="fill:#1ed760;fill-opacity:1;stroke:#1ed760;stroke-opacity:1" />
</svg>
