<?xml version="1.0" encoding="UTF-8" standalone="no"?>
<svg
   width="7.5084414in"
   height="2.3480158in"
   viewBox="0 0 750.84416 234.80159"
   version="1.1"
   id="svg1"
   sodipodiDocName="logo"
   inkscapeExportFilename="logo.svg"
   inkscapeExportXdpi="96"
   inkscapeExportYdpi="96"
   xmlnsInkscape="http://www.inkscape.org/namespaces/inkscape"
   xmlnsSodipodi="http://sodipodi.sourceforge.net/DTD/sodipodi-0.dtd"
   xmlns="http://www.w3.org/2000/svg"
   xmlnsSvg="http://www.w3.org/2000/svg">
  <defs
     id="defs1" />
  <sodipodiNamedView
     id="namedview1"
     pageColor="#ffffff"
     borderColor="#000000"
     borderOpacity="0.25"
     inkscapeShowpageShadow="2"
     inkscapePageOpacity="0.0"
     inkscapePageCheckerBoard="0"
     inkscapeDeskColor="#d1d1d1"
     inkscapeDocumentUnits="in" />
  <path
     id="Selección"
     fill="none"
     stroke="#000000"
     strokeWidth="1"
     d="m 108.15628,0.50512391 h 12 c 11.87,-0.15 27.89,3.02999999 39,7.20999999 12.43,4.6800011 24.98,12.1600011 35,20.8700011 50.84,44.21 53.92,124.119995 6,171.709995 -9.36,9.29 -21.85,18.18 -34,23.42 -15.69,6.76 -32.86,10.77 -50,10.58 -13.39,-0.16 -30.589999,-3.58 -42.999999,-8.6 -13.500002,-5.47 -27.530002,-14.33 -37.960002,-24.49 -46.209999,-44.99 -45.659999,-119.519995 -1.95,-165.909995 15.07,-15.99 38.390002,-28.2200011 59.910002,-32.5500011 z m 493,54.53000109 c 5.1,-1.23 10.7,-1.16 14.78,2.65 5.94,5.57 5.3,17.88 -3.78,21.6 -16.43,6.74 -27.3,-15.65 -11,-24.25 z m 33,34.26 c 0.09,-10.23 1.55,-21.13 11,-27.01 6.85,-4.26 15.36,-4.07 23,-2.99 2.31,0.33 6.49,0.77 8.01,2.72 1.38,1.78 1.03,7.92 0.99,10.28 0.37848,11.68 -3.85836,3.152281 -14,5.74 -6.02,1.48 -6.86,5.94 -7,11.26 h 23 l 8.40159,-0.09275 5.99841,16.092745 13.6,37 h 2 l 8.66,-26 6.29,-17.999996 c 0.82,-2.239995 2.08739,-6.031589 2.92522,-8.881155 2.25319,-0.04304 4.82478,-0.06884 7.12478,-0.11884 h 5.68261 c 2.11,0 7.10898,0.148985 10.32333,0.118845 -1.35219,4.330596 -2.48447,6.969685 -3.19594,8.88116 l -6.86,17.999996 -17.14,44 c -3.2,8.27 -7.01,20.2 -12.49,26.96 -7.06,8.72 -16.98,9.57 -27.32,8.04 -2.97,-0.45 -8.31,-1.65 -10.7,-3.41 -4.06,-3 0.92,-14.44 4.33,-16.55 3.77,-2.35 14.89,6.59 19.01,-4.06 1.39,-3.59 -2.76,-11.35 -4.24,-14.98 l -13.41,-32 c -1.1,-2.66 -5.1,-12.92 -6.69,-14.4 -2.57,-2.42 -11.66,-1.6 -15.3,-1.6 v 63 h -22 v -63 h -10 c 0,-3.48 0.0322,-13.979851 0.0131,-18.720577 3.89173,-0.05043 7.84695,-0.27942 9.98695,-0.27942 z M 76.607001,64.598894 c -11.757537,1.182608 -25.145939,3.451594 -33.410722,6.776231 -8.64,5.34 -5.9,16.4 1.96,18.49 3.97,1.05 12.000146,-1.317391 16.010146,-2.237391 l 18.989856,-3.212609 11.16377,-1.057972 10.836229,-0.02203 8.74058,0.325217 11.22174,0.846377 c 0,0 10.25652,0.872463 19.03768,2.988406 11.24,2.23 22.55,5.26 33,10.03 4.84,2.210001 14.12,7.939997 19,7.149997 5.32,-0.86 9.51,-5.929996 8.57,-11.379997 -1.58,-9.12 -18.78,-14.85 -26.57,-17.81 -24.93,-9.48 -49.57,-12.19 -75.999999,-12.05 0,0 -12.39275,-0.105797 -22.54928,1.163769 z M 304.15628,62.725125 c 13.1,-1.62 31.5,2.6 41.87,10.93 5.46,4.39 0.43,9.31 -2.73,13.64 -1.24,1.69 -3.13,4.71 -5.32,5.13 -2.49,0.47 -7.47,-3.11 -9.82,-4.35 -5.08,-2.69 -13.18,-5.94 -19,-5.57 -6.15,0.39 -16.31,5.12 -14.02,12.79 2.34,7.829995 16.06,10.609995 23.02,12.369995 17.46,4.43 33.91,10.77 34,31.63 0.03,6.01 -0.01,9.32 -2.47,15 -8.56,19.79 -36.48,21.66 -54.53,16.57 -7.39,-2.08 -13.66,-4.97 -20,-9.32 -1.99,-1.36 -5.71,-3.8 -6.1,-6.34 -0.58,-3.76 8.33,-14.15 12.11,-14.32 3.16,-0.15 8.98,4.8 11.99,6.54 5.72,3.3 13.35,5.84 20,5.84 6.91,0 18.4,-4.16 16.53,-12.97 -1.91,-9.01 -17.09,-11.12 -24.53,-13.15 -7.89,-2.16 -18.79,-5.73 -24.82,-11.32 -8.63,-8 -9.92,-23.019995 -5.7,-33.529995 2.16,-5.38 5.71,-9.69 10.52,-12.9 6.23,-4.16 11.78,-5.49 19,-6.67 z m 241,5.57 h 22 v 21 c 3.68,0 15.84406,0.107972 20.82638,0.11884 0.18884,4.447537 0.17362,15.621155 0.17362,18.881155 h -21 v 34 c 0.07,5.19 0.95,9.7 7,10.69 3.73,0.6 9.28,-1.71 12.99,-2.69 1.04,3.63 2.05,14.42 0,17.61 -1.71,2.63 -6.1,3.74 -8.99,4.37 -8.83,1.95 -21.13,1.11 -27.47,-6.16 -4.88,-5.6 -5.52,-14.7 -5.53,-21.82 v -36 h -10 c 0,-3.48 -0.28522,-13.662458 -0.0927,-19.037967 4.42072,0.161161 7.95275,0.03797 10.09275,0.03797 z m -165,29.999999 c 9.42,-8.569999 14.58,-10.139999 27,-9.999999 47.37,0.56 49.32,83.839995 -1,84.989995 -11.2,0.25 -17.73,-2.47 -26,-9.99 v 32 h -22 v -81 -17.999995 c 0.04,-1.95 -0.1,-4.63 1.6,-5.98 1.59,-1.25 5.41,-1.02 7.4,-1.02 12.45,-0.02 12.96,-0.79 13,8.999999 z m 102,-9.769999 c 4.31,-0.36 8.65,-0.28 13,0 31.04,0.14 49.09,35.019995 35.62,61.769995 -8.39,16.69 -23.79,23.2 -41.62,23 -6.15,-0.08 -11.42,-1.13 -17,-3.78 -11.99,-5.71 -21.72,-16.79 -23.85,-30.22 v -12 c -0.05,-7.79 2.81,-15.74 7.46,-22 6.57,-8.849995 15.76,-14.169995 26.39,-16.769995 z m 113,82.769995 -0.1058,-61.68261 c -0.21159,-4.00319 -0.0836,-13.901876 -0.0928,-20.037965 0,0 6.37855,-0.26942 8.19855,-0.27942 l 13.98261,-0.211594 c 0,0 0.0174,2.571594 0.0174,19.211589 v 63 z m -511.999999,-67.72 c 0,0 -14.83333,1.44609 -27.000002,4.62 -4.53,1.16 -9.29,2.92 -10.34,8.1 -1.15,5.72 3.8,10.11 9.34,9.66 4.23,-0.34 20.670002,-5.63 37.000002,-5.66 17.719999,-0.03 27.579999,0.52 44.999999,4.87 11.09,2.77 17.77,5.23 28,10.38 4.37,2.2 9.91,6.06 14.98,4.15 5.23,-1.97 6.9,-7.83 3.51,-12.3 -3.59,-4.71 -14.88,-9.44 -20.49,-11.82 -23.45,-9.92 -54.65,-14.35 -79.999999,-12 z m 313.999999,3.93 c -25.34,6.2 -21.78,44.01 2,46.45 3.07,0.32 6.17,-0.44 9,-1.59 20.14,-8.16 16.1,-43.43 -6,-44.86 -1.77,-0.24 -3.26,-0.07 -5,0 z m 91,0.11 c -6.38,1.45 -11.4,3.93 -15.01,9.68 -8.99,14.33 -0.88,35.66 17.01,36.9 25.46,1.78 32.51,-36.75 8,-45.51 -3.84,-1.38 -6.01,-1.47 -10,-1.07 z m -403.999999,33.96 c 0,0 -13.36231,1.09927 -25.000002,3.85 -3.37,0.88 -7.618986,2.2158 -7.948406,7.58275 0.02594,6.13044 6.158406,6.29725 10.948406,5.53725 22.100002,-3.55 40.620001,-6.28 63.000001,-1.59 8.97,1.88 17.74,4.6 26,8.6 4.03,1.95 10.55,6.4 14.96,5.29 5.11,-1.28 5.95,-6.58 2.73,-10.37 -3.56,-4.18 -13.46,-8.16 -18.69,-10.32 -19.67,-8.11 -44.89,-10.54 -65.999999,-8.58 z"
     sodipodiNodeTypes="ccccccccccccccccccccccccccccccccsccccccccccccccccccccccccccccccccccccccccccccccccccsccccccccccccccccccccccccccccccccccccccccccccccccccccccccccccccccccccccccccccccccccccc"
     style="fill:#1ed760;fill-opacity:1;stroke:#1ed760;stroke-opacity:1" />
</svg>
